<svg width="231" height="41" viewBox="0 0 231 41" fill="none" xmlns="http://www.w3.org/2000/svg">
<path fill-rule="evenodd" clip-rule="evenodd" d="M4.48073 8.96161H0V13.4423H4.48073V40.3272H8.96145V13.4423H13.4423V40.3272H17.9231V13.4423V8.96161H13.4423H8.96145H4.48073Z" fill="#FEFEFE"/>
<path fill-rule="evenodd" clip-rule="evenodd" d="M22.4023 13.4423H40.3256V8.96161H22.4023V13.4423Z" fill="#FEFEFE"/>
<path fill-rule="evenodd" clip-rule="evenodd" d="M26.8831 17.9232H22.4023V22.4039V35.8464V40.3272H26.8831H31.364H35.8447H40.3256V35.8464H35.8447V31.3655H40.3256V26.8848H35.8447H31.364V31.3655V35.8464H26.8831V22.4039H40.3256V17.9232H26.8831Z" fill="#FEFEFE"/>
<path fill-rule="evenodd" clip-rule="evenodd" d="M0 4.48073H40.3272V0H0V4.48073Z" fill="#FEFEFE"/>
<path d="M51.9487 7.98846H51.3057L50.1614 6.70251L51.3057 5.38593H51.9563L50.7814 6.70251L51.9487 7.98846ZM50.4599 7.98846H49.8246L48.6802 6.70251L49.8246 5.38593H50.4599L49.3002 6.70251L50.4599 7.98846Z" fill="#FEFEFE"/>
<path d="M58.0732 8.75391H57.3614L56.7796 7.21536H54.4527L53.9054 8.75391H53.1897L55.2947 3.26564H55.9606L58.0732 8.75391ZM56.5691 6.63744L55.708 4.299C55.6799 4.22245 55.6519 4.09998 55.6238 3.93158H55.6085C55.583 4.08722 55.5536 4.2097 55.5205 4.299L54.667 6.63744H56.5691ZM62.6736 8.75391H61.889L60.626 6.65275C60.5877 6.58896 60.5456 6.49839 60.4997 6.38102H60.4844C60.4589 6.4397 60.4155 6.53028 60.3543 6.65275L59.053 8.75391H58.2646L60.1017 5.99447L58.41 3.26564H59.1984L60.3198 5.19457C60.3938 5.32215 60.4589 5.44972 60.515 5.5773H60.5303C60.612 5.4089 60.6834 5.27622 60.7446 5.17926L61.9119 3.26564H62.6506L60.9245 5.98681L62.6736 8.75391ZM63.5079 8.75391V3.26564H65.0694C65.544 3.26564 65.9203 3.38174 66.1985 3.61392C66.4766 3.84611 66.6156 4.14846 66.6156 4.52098C66.6156 4.83226 66.5314 5.10272 66.363 5.33235C66.1946 5.56199 65.9624 5.72528 65.6665 5.82224V5.83755C66.0364 5.88092 66.3324 6.02126 66.5544 6.25855C66.7764 6.49328 66.8874 6.79946 66.8874 7.17708C66.8874 7.64656 66.719 8.02673 66.3822 8.3176C66.0454 8.60847 65.6205 8.75391 65.1077 8.75391H63.5079ZM64.1509 3.84738V5.6194H64.8092C65.1613 5.6194 65.4381 5.5352 65.6397 5.3668C65.8412 5.19585 65.942 4.95601 65.942 4.64728C65.942 4.11401 65.5912 3.84738 64.8895 3.84738H64.1509ZM64.1509 6.19731V8.17217H65.0235C65.4011 8.17217 65.6933 8.08286 65.8999 7.90426C66.1092 7.72565 66.2138 7.48071 66.2138 7.16943C66.2138 6.52135 65.7724 6.19731 64.8895 6.19731H64.1509ZM70.2132 8.84576C69.435 8.84576 68.8112 8.58933 68.3417 8.07648C67.8748 7.56363 67.6413 6.89642 67.6413 6.07484C67.6413 5.19202 67.8799 4.48781 68.357 3.9622C68.8342 3.43659 69.4835 3.17379 70.3051 3.17379C71.0629 3.17379 71.6727 3.42894 72.1345 3.93924C72.5989 4.44954 72.8311 5.11675 72.8311 5.94088C72.8311 6.83646 72.5938 7.5445 72.1192 8.065C71.6446 8.58551 71.0093 8.84576 70.2132 8.84576ZM70.2592 3.75553C69.6825 3.75553 69.2143 3.96348 68.8546 4.37937C68.4948 4.79526 68.3149 5.34128 68.3149 6.01743C68.3149 6.69358 68.4897 7.23832 68.8393 7.65166C69.1914 8.06245 69.6494 8.26785 70.2132 8.26785C70.8154 8.26785 71.29 8.07138 71.637 7.67845C71.984 7.28552 72.1575 6.73567 72.1575 6.02891C72.1575 5.30429 71.9891 4.74423 71.6523 4.34875C71.3155 3.95327 70.8511 3.75553 70.2592 3.75553ZM77.8448 8.75391H77.0793L76.1608 7.21536C76.0766 7.07247 75.9949 6.95128 75.9158 6.85177C75.8367 6.74971 75.7551 6.66678 75.6709 6.603C75.5892 6.53921 75.4999 6.49328 75.403 6.46522C75.3086 6.4346 75.2014 6.41929 75.0815 6.41929H74.5533V8.75391H73.9103V3.26564H75.5484C75.7882 3.26564 76.009 3.29626 76.2105 3.3575C76.4146 3.41618 76.5907 3.50676 76.7387 3.62923C76.8892 3.7517 77.0066 3.90479 77.0908 4.0885C77.175 4.26966 77.2171 4.48271 77.2171 4.72765C77.2171 4.91901 77.1877 5.09506 77.1291 5.25581C77.0729 5.414 76.9913 5.55561 76.8841 5.68063C76.7795 5.80566 76.6519 5.91282 76.5014 6.00212C76.3534 6.08887 76.1863 6.15649 76 6.20496V6.22027C76.0919 6.2611 76.171 6.3083 76.2373 6.36188C76.3062 6.41291 76.3713 6.47415 76.4325 6.54559C76.4937 6.61703 76.5537 6.69868 76.6124 6.79053C76.6736 6.87983 76.7412 6.98445 76.8152 7.10437L77.8448 8.75391ZM74.5533 3.84738V5.83755H75.4259C75.5867 5.83755 75.7347 5.81331 75.8699 5.76483C76.0077 5.71635 76.1263 5.64746 76.2258 5.55816C76.3253 5.46631 76.4032 5.35532 76.4593 5.22519C76.5154 5.09251 76.5435 4.94453 76.5435 4.78123C76.5435 4.48781 76.4478 4.25945 76.2564 4.09615C76.0676 3.93031 75.7933 3.84738 75.4336 3.84738H74.5533ZM80.7381 8.84576C79.9599 8.84576 79.3361 8.58933 78.8666 8.07648C78.3997 7.56363 78.1662 6.89642 78.1662 6.07484C78.1662 5.19202 78.4048 4.48781 78.8819 3.9622C79.3591 3.43659 80.0084 3.17379 80.83 3.17379C81.5878 3.17379 82.1976 3.42894 82.6594 3.93924C83.1238 4.44954 83.356 5.11675 83.356 5.94088C83.356 6.83646 83.1187 7.5445 82.6441 8.065C82.1695 8.58551 81.5342 8.84576 80.7381 8.84576ZM80.7841 3.75553C80.2074 3.75553 79.7392 3.96348 79.3795 4.37937C79.0197 4.79526 78.8398 5.34128 78.8398 6.01743C78.8398 6.69358 79.0146 7.23832 79.3642 7.65166C79.7163 8.06245 80.1743 8.26785 80.7381 8.26785C81.3403 8.26785 81.8149 8.07138 82.1619 7.67845C82.5089 7.28552 82.6824 6.73567 82.6824 6.02891C82.6824 5.30429 82.514 4.74423 82.1772 4.34875C81.8404 3.95327 81.376 3.75553 80.7841 3.75553ZM87.3287 3.84738H85.7442V8.75391H85.1012V3.84738H83.5205V3.26564H87.3287V3.84738ZM93.59 3.84738H92.0055V8.75391H91.3626V3.84738H89.7819V3.26564H93.59V3.84738ZM97.3637 8.75391H94.455V3.26564H97.2412V3.84738H95.098V5.67298H97.0805V6.25089H95.098V8.17217H97.3637V8.75391ZM102.209 8.75391H101.424L100.161 6.65275C100.123 6.58896 100.081 6.49839 100.035 6.38102H100.02C99.9943 6.4397 99.9509 6.53028 99.8897 6.65275L98.5884 8.75391H97.8L99.6371 5.99447L97.9454 3.26564H98.7338L99.8552 5.19457C99.9292 5.32215 99.9943 5.44972 100.05 5.5773H100.066C100.147 5.4089 100.219 5.27622 100.28 5.17926L101.447 3.26564H102.186L100.46 5.98681L102.209 8.75391ZM107.468 8.75391H106.679L103.855 4.37937C103.783 4.26966 103.725 4.15484 103.679 4.03492H103.656C103.676 4.15229 103.686 4.40361 103.686 4.78889V8.75391H103.043V3.26564H103.878L106.626 7.57129C106.74 7.74989 106.814 7.87237 106.848 7.9387H106.863C106.837 7.78051 106.825 7.51133 106.825 7.13116V3.26564H107.468V8.75391ZM111.119 8.84576C110.341 8.84576 109.717 8.58933 109.247 8.07648C108.78 7.56363 108.547 6.89642 108.547 6.07484C108.547 5.19202 108.785 4.48781 109.263 3.9622C109.74 3.43659 110.389 3.17379 111.211 3.17379C111.968 3.17379 112.578 3.42894 113.04 3.93924C113.504 4.44954 113.737 5.11675 113.737 5.94088C113.737 6.83646 113.499 7.5445 113.025 8.065C112.55 8.58551 111.915 8.84576 111.119 8.84576ZM111.165 3.75553C110.588 3.75553 110.12 3.96348 109.76 4.37937C109.4 4.79526 109.22 5.34128 109.22 6.01743C109.22 6.69358 109.395 7.23832 109.745 7.65166C110.097 8.06245 110.555 8.26785 111.119 8.26785C111.721 8.26785 112.196 8.07138 112.543 7.67845C112.89 7.28552 113.063 6.73567 113.063 6.02891C113.063 5.30429 112.895 4.74423 112.558 4.34875C112.221 3.95327 111.757 3.75553 111.165 3.75553ZM117.663 8.75391H114.816V3.26564H115.459V8.17217H117.663V8.75391ZM120.45 8.84576C119.671 8.84576 119.048 8.58933 118.578 8.07648C118.111 7.56363 117.878 6.89642 117.878 6.07484C117.878 5.19202 118.116 4.48781 118.593 3.9622C119.071 3.43659 119.72 3.17379 120.541 3.17379C121.299 3.17379 121.909 3.42894 122.371 3.93924C122.835 4.44954 123.067 5.11675 123.067 5.94088C123.067 6.83646 122.83 7.5445 122.356 8.065C121.881 8.58551 121.246 8.84576 120.45 8.84576ZM120.496 3.75553C119.919 3.75553 119.451 3.96348 119.091 4.37937C118.731 4.79526 118.551 5.34128 118.551 6.01743C118.551 6.69358 118.726 7.23832 119.076 7.65166C119.428 8.06245 119.886 8.26785 120.45 8.26785C121.052 8.26785 121.526 8.07138 121.873 7.67845C122.22 7.28552 122.394 6.73567 122.394 6.02891C122.394 5.30429 122.225 4.74423 121.889 4.34875C121.552 3.95327 121.087 3.75553 120.496 3.75553ZM128.25 8.37884C127.698 8.69012 127.086 8.84576 126.412 8.84576C125.629 8.84576 124.995 8.59316 124.51 8.08797C124.028 7.58277 123.787 6.91428 123.787 6.08249C123.787 5.23284 124.055 4.53629 124.591 3.99282C125.129 3.4468 125.81 3.17379 126.634 3.17379C127.231 3.17379 127.733 3.27075 128.139 3.46466V4.17653C127.695 3.89586 127.169 3.75553 126.562 3.75553C125.947 3.75553 125.443 3.9673 125.05 4.39085C124.657 4.8144 124.461 5.36297 124.461 6.03657C124.461 6.73057 124.643 7.27659 125.008 7.67462C125.373 8.07011 125.868 8.26785 126.493 8.26785C126.921 8.26785 127.293 8.18237 127.607 8.01142V6.47287H126.405V5.89113H128.25V8.37884ZM130.171 8.75391H129.528V3.26564H130.171V8.75391ZM135.184 3.26564L133.374 6.72547V8.75391H132.731V6.74078L130.967 3.26564H131.698L132.926 5.7457C132.942 5.77631 132.986 5.88858 133.06 6.08249H133.072C133.097 5.99574 133.146 5.88348 133.217 5.7457L134.503 3.26564H135.184ZM139.586 8.75391H138.874L138.292 7.21536H135.965L135.418 8.75391H134.702L136.807 3.26564H137.473L139.586 8.75391ZM138.082 6.63744L137.221 4.299C137.192 4.22245 137.164 4.09998 137.136 3.93158H137.121C137.096 4.08722 137.066 4.2097 137.033 4.299L136.18 6.63744H138.082ZM143.245 8.75391H140.397V3.26564H141.04V8.17217H143.245V8.75391ZM148.564 8.75391H147.853L147.271 7.21536H144.944L144.397 8.75391H143.681L145.786 3.26564H146.452L148.564 8.75391ZM147.06 6.63744L146.199 4.299C146.171 4.22245 146.143 4.09998 146.115 3.93158H146.1C146.074 4.08722 146.045 4.2097 146.012 4.299L145.158 6.63744H147.06ZM153.31 8.75391H152.545L151.626 7.21536C151.542 7.07247 151.46 6.95128 151.381 6.85177C151.302 6.74971 151.221 6.66678 151.136 6.603C151.055 6.53921 150.965 6.49328 150.869 6.46522C150.774 6.4346 150.667 6.41929 150.547 6.41929H150.019V8.75391H149.376V3.26564H151.014C151.254 3.26564 151.474 3.29626 151.676 3.3575C151.88 3.41618 152.056 3.50676 152.204 3.62923C152.355 3.7517 152.472 3.90479 152.556 4.0885C152.641 4.26966 152.683 4.48271 152.683 4.72765C152.683 4.91901 152.653 5.09506 152.595 5.25581C152.538 5.414 152.457 5.55561 152.35 5.68063C152.245 5.80566 152.117 5.91282 151.967 6.00212C151.819 6.08887 151.652 6.15649 151.466 6.20496V6.22027C151.557 6.2611 151.637 6.3083 151.703 6.36188C151.772 6.41291 151.837 6.47415 151.898 6.54559C151.959 6.61703 152.019 6.69868 152.078 6.79053C152.139 6.87983 152.207 6.98445 152.281 7.10437L153.31 8.75391ZM150.019 3.84738V5.83755H150.891C151.052 5.83755 151.2 5.81331 151.335 5.76483C151.473 5.71635 151.592 5.64746 151.691 5.55816C151.791 5.46631 151.869 5.35532 151.925 5.22519C151.981 5.09251 152.009 4.94453 152.009 4.78123C152.009 4.48781 151.913 4.25945 151.722 4.09615C151.533 3.93031 151.259 3.84738 150.899 3.84738H150.019ZM154.711 8.75391H154.068V3.26564H154.711V8.75391ZM162.388 3.26564L160.356 8.75391H159.648L157.658 3.26564H158.374L159.893 7.61722C159.942 7.75755 159.979 7.91957 160.004 8.10328H160.019C160.04 7.95019 160.082 7.78561 160.146 7.60956L161.696 3.26564H162.388ZM166.966 8.75391H166.254L165.672 7.21536H163.345L162.798 8.75391H162.082L164.187 3.26564H164.853L166.966 8.75391ZM165.462 6.63744L164.601 4.299C164.573 4.22245 164.545 4.09998 164.516 3.93158H164.501C164.476 4.08722 164.446 4.2097 164.413 4.299L163.56 6.63744H165.462ZM174.176 8.75391H173.465L172.883 7.21536H170.556L170.009 8.75391H169.293L171.398 3.26564H172.064L174.176 8.75391ZM172.672 6.63744L171.811 4.299C171.783 4.22245 171.755 4.09998 171.727 3.93158H171.712C171.686 4.08722 171.657 4.2097 171.624 4.299L170.77 6.63744H172.672ZM178.777 8.75391H177.992L176.729 6.65275C176.691 6.58896 176.649 6.49839 176.603 6.38102H176.588C176.562 6.4397 176.519 6.53028 176.457 6.65275L175.156 8.75391H174.368L176.205 5.99447L174.513 3.26564H175.302L176.423 5.19457C176.497 5.32215 176.562 5.44972 176.618 5.5773H176.633C176.715 5.4089 176.787 5.27622 176.848 5.17926L178.015 3.26564H178.754L177.028 5.98681L178.777 8.75391ZM179.611 8.75391V3.26564H181.173C181.647 3.26564 182.024 3.38174 182.302 3.61392C182.58 3.84611 182.719 4.14846 182.719 4.52098C182.719 4.83226 182.635 5.10272 182.466 5.33235C182.298 5.56199 182.066 5.72528 181.77 5.82224V5.83755C182.14 5.88092 182.436 6.02126 182.658 6.25855C182.88 6.49328 182.991 6.79946 182.991 7.17708C182.991 7.64656 182.822 8.02673 182.485 8.3176C182.149 8.60847 181.724 8.75391 181.211 8.75391H179.611ZM180.254 3.84738V5.6194H180.912C181.264 5.6194 181.541 5.5352 181.743 5.3668C181.944 5.19585 182.045 4.95601 182.045 4.64728C182.045 4.11401 181.694 3.84738 180.993 3.84738H180.254ZM180.254 6.19731V8.17217H181.127C181.504 8.17217 181.796 8.08286 182.003 7.90426C182.212 7.72565 182.317 7.48071 182.317 7.16943C182.317 6.52135 181.876 6.19731 180.993 6.19731H180.254ZM186.316 8.84576C185.538 8.84576 184.914 8.58933 184.445 8.07648C183.978 7.56363 183.744 6.89642 183.744 6.07484C183.744 5.19202 183.983 4.48781 184.46 3.9622C184.937 3.43659 185.587 3.17379 186.408 3.17379C187.166 3.17379 187.776 3.42894 188.238 3.93924C188.702 4.44954 188.934 5.11675 188.934 5.94088C188.934 6.83646 188.697 7.5445 188.222 8.065C187.748 8.58551 187.112 8.84576 186.316 8.84576ZM186.362 3.75553C185.786 3.75553 185.317 3.96348 184.958 4.37937C184.598 4.79526 184.418 5.34128 184.418 6.01743C184.418 6.69358 184.593 7.23832 184.942 7.65166C185.295 8.06245 185.753 8.26785 186.316 8.26785C186.919 8.26785 187.393 8.07138 187.74 7.67845C188.087 7.28552 188.261 6.73567 188.261 6.02891C188.261 5.30429 188.092 4.74423 187.755 4.34875C187.419 3.95327 186.954 3.75553 186.362 3.75553ZM193.948 8.75391H193.182L192.264 7.21536C192.18 7.07247 192.098 6.95128 192.019 6.85177C191.94 6.74971 191.858 6.66678 191.774 6.603C191.692 6.53921 191.603 6.49328 191.506 6.46522C191.412 6.4346 191.305 6.41929 191.185 6.41929H190.656V8.75391H190.014V3.26564H191.652C191.891 3.26564 192.112 3.29626 192.314 3.3575C192.518 3.41618 192.694 3.50676 192.842 3.62923C192.992 3.7517 193.11 3.90479 193.194 4.0885C193.278 4.26966 193.32 4.48271 193.32 4.72765C193.32 4.91901 193.291 5.09506 193.232 5.25581C193.176 5.414 193.094 5.55561 192.987 5.68063C192.883 5.80566 192.755 5.91282 192.605 6.00212C192.457 6.08887 192.289 6.15649 192.103 6.20496V6.22027C192.195 6.2611 192.274 6.3083 192.34 6.36188C192.409 6.41291 192.474 6.47415 192.536 6.54559C192.597 6.61703 192.657 6.69868 192.716 6.79053C192.777 6.87983 192.844 6.98445 192.918 7.10437L193.948 8.75391ZM190.656 3.84738V5.83755H191.529C191.69 5.83755 191.838 5.81331 191.973 5.76483C192.111 5.71635 192.229 5.64746 192.329 5.55816C192.429 5.46631 192.506 5.35532 192.562 5.22519C192.619 5.09251 192.647 4.94453 192.647 4.78123C192.647 4.48781 192.551 4.25945 192.36 4.09615C192.171 3.93031 191.897 3.84738 191.537 3.84738H190.656ZM196.841 8.84576C196.063 8.84576 195.439 8.58933 194.97 8.07648C194.503 7.56363 194.269 6.89642 194.269 6.07484C194.269 5.19202 194.508 4.48781 194.985 3.9622C195.462 3.43659 196.112 3.17379 196.933 3.17379C197.691 3.17379 198.301 3.42894 198.763 3.93924C199.227 4.44954 199.459 5.11675 199.459 5.94088C199.459 6.83646 199.222 7.5445 198.747 8.065C198.273 8.58551 197.637 8.84576 196.841 8.84576ZM196.887 3.75553C196.311 3.75553 195.842 3.96348 195.483 4.37937C195.123 4.79526 194.943 5.34128 194.943 6.01743C194.943 6.69358 195.118 7.23832 195.467 7.65166C195.819 8.06245 196.277 8.26785 196.841 8.26785C197.443 8.26785 197.918 8.07138 198.265 7.67845C198.612 7.28552 198.786 6.73567 198.786 6.02891C198.786 5.30429 198.617 4.74423 198.28 4.34875C197.944 3.95327 197.479 3.75553 196.887 3.75553ZM203.432 3.84738H201.847V8.75391H201.204V3.84738H199.624V3.26564H203.432V3.84738Z" fill="#FEFEFE"/>
<path d="M52.982 18.7539H52.2166L51.2981 17.2154C51.2139 17.0725 51.1322 16.9513 51.0531 16.8518C50.974 16.7497 50.8924 16.6668 50.8082 16.603C50.7265 16.5392 50.6372 16.4933 50.5403 16.4652C50.4459 16.4346 50.3387 16.4193 50.2188 16.4193H49.6906V18.7539H49.0476V13.2656H50.6857C50.9255 13.2656 51.1462 13.2963 51.3478 13.3575C51.5519 13.4162 51.728 13.5068 51.876 13.6292C52.0265 13.7517 52.1439 13.9048 52.2281 14.0885C52.3123 14.2697 52.3544 14.4827 52.3544 14.7276C52.3544 14.919 52.325 15.0951 52.2664 15.2558C52.2102 15.414 52.1286 15.5556 52.0214 15.6806C51.9168 15.8057 51.7892 15.9128 51.6387 16.0021C51.4907 16.0889 51.3236 16.1565 51.1373 16.205V16.2203C51.2292 16.2611 51.3083 16.3083 51.3746 16.3619C51.4435 16.4129 51.5086 16.4741 51.5698 16.5456C51.631 16.617 51.691 16.6987 51.7497 16.7905C51.8109 16.8798 51.8785 16.9844 51.9525 17.1044L52.982 18.7539ZM49.6906 13.8474V15.8375H50.5632C50.724 15.8375 50.872 15.8133 51.0072 15.7648C51.145 15.7164 51.2636 15.6475 51.3631 15.5582C51.4626 15.4663 51.5405 15.3553 51.5966 15.2252C51.6527 15.0925 51.6808 14.9445 51.6808 14.7812C51.6808 14.4878 51.5851 14.2595 51.3937 14.0962C51.2049 13.9303 50.9306 13.8474 50.5709 13.8474H49.6906ZM56.6485 18.7539H53.7398V13.2656H56.5261V13.8474H54.3828V15.673H56.3653V16.2509H54.3828V18.1722H56.6485V18.7539ZM57.4484 18.5319V17.7741C57.5352 17.8507 57.6385 17.9196 57.7584 17.9808C57.8809 18.042 58.0085 18.0943 58.1412 18.1377C58.2764 18.1785 58.4116 18.2104 58.5469 18.2334C58.6821 18.2564 58.8071 18.2678 58.9219 18.2678C59.3174 18.2678 59.6121 18.1951 59.806 18.0497C60.0025 17.9017 60.1007 17.6899 60.1007 17.4144C60.1007 17.2664 60.0675 17.1375 60.0012 17.0278C59.9374 16.9181 59.8481 16.8186 59.7333 16.7293C59.6185 16.6374 59.482 16.5507 59.3238 16.469C59.1681 16.3848 58.9997 16.2968 58.8186 16.205C58.6272 16.108 58.4486 16.0098 58.2828 15.9103C58.1169 15.8108 57.9728 15.701 57.8503 15.5811C57.7278 15.4612 57.6309 15.326 57.5594 15.1754C57.4905 15.0223 57.4561 14.8437 57.4561 14.6396C57.4561 14.3896 57.511 14.1727 57.6207 13.989C57.7304 13.8027 57.8745 13.6496 58.0531 13.5297C58.2317 13.4098 58.4346 13.3205 58.6617 13.2618C58.8913 13.2031 59.1248 13.1738 59.3621 13.1738C59.903 13.1738 60.2972 13.2389 60.5447 13.369V14.0923C60.2206 13.8678 59.8047 13.7555 59.297 13.7555C59.1567 13.7555 59.0163 13.7708 58.876 13.8015C58.7357 13.8295 58.6106 13.8767 58.5009 13.9431C58.3912 14.0094 58.3019 14.0949 58.233 14.1995C58.1641 14.3041 58.1297 14.4317 58.1297 14.5822C58.1297 14.7225 58.1552 14.8437 58.2062 14.9458C58.2598 15.0479 58.3376 15.141 58.4397 15.2252C58.5418 15.3094 58.6655 15.391 58.8109 15.4701C58.9589 15.5492 59.1286 15.636 59.32 15.7304C59.5164 15.8273 59.7027 15.9294 59.8787 16.0366C60.0548 16.1437 60.2092 16.2624 60.3418 16.3925C60.4745 16.5226 60.5791 16.6668 60.6557 16.825C60.7348 16.9832 60.7743 17.1643 60.7743 17.3684C60.7743 17.6389 60.7207 17.8685 60.6136 18.0573C60.509 18.2436 60.3661 18.3954 60.1849 18.5128C60.0063 18.6302 59.7996 18.7144 59.5649 18.7654C59.3302 18.819 59.0827 18.8458 58.8224 18.8458C58.7357 18.8458 58.6285 18.8381 58.5009 18.8228C58.3734 18.81 58.2432 18.7896 58.1106 18.7616C57.9779 18.736 57.8516 18.7042 57.7317 18.6659C57.6143 18.6251 57.5199 18.5804 57.4484 18.5319ZM65.8837 16.5341C65.8837 18.0752 65.1884 18.8458 63.7978 18.8458C62.466 18.8458 61.8 18.1046 61.8 16.6221V13.2656H62.443V16.58C62.443 17.7052 62.9176 18.2678 63.8667 18.2678C64.7827 18.2678 65.2407 17.7244 65.2407 16.6374V13.2656H65.8837V16.5341ZM71.1921 18.7539H70.4266L69.5081 17.2154C69.4239 17.0725 69.3422 16.9513 69.2631 16.8518C69.184 16.7497 69.1024 16.6668 69.0182 16.603C68.9365 16.5392 68.8472 16.4933 68.7503 16.4652C68.6559 16.4346 68.5487 16.4193 68.4288 16.4193H67.9006V18.7539H67.2577V13.2656H68.8957C69.1356 13.2656 69.3563 13.2963 69.5578 13.3575C69.7619 13.4162 69.938 13.5068 70.086 13.6292C70.2365 13.7517 70.3539 13.9048 70.4381 14.0885C70.5223 14.2697 70.5644 14.4827 70.5644 14.7276C70.5644 14.919 70.5351 15.0951 70.4764 15.2558C70.4202 15.414 70.3386 15.5556 70.2314 15.6806C70.1268 15.8057 69.9992 15.9128 69.8487 16.0021C69.7007 16.0889 69.5336 16.1565 69.3473 16.205V16.2203C69.4392 16.2611 69.5183 16.3083 69.5846 16.3619C69.6535 16.4129 69.7186 16.4741 69.7798 16.5456C69.841 16.617 69.901 16.6987 69.9597 16.7905C70.0209 16.8798 70.0885 16.9844 70.1625 17.1044L71.1921 18.7539ZM67.9006 13.8474V15.8375H68.7732C68.934 15.8375 69.082 15.8133 69.2172 15.7648C69.355 15.7164 69.4736 15.6475 69.5731 15.5582C69.6726 15.4663 69.7505 15.3553 69.8066 15.2252C69.8627 15.0925 69.8908 14.9445 69.8908 14.7812C69.8908 14.4878 69.7951 14.2595 69.6038 14.0962C69.4149 13.9303 69.1407 13.8474 68.7809 13.8474H67.9006ZM71.6934 18.5319V17.7741C71.7802 17.8507 71.8835 17.9196 72.0034 17.9808C72.1259 18.042 72.2535 18.0943 72.3862 18.1377C72.5214 18.1785 72.6566 18.2104 72.7918 18.2334C72.9271 18.2564 73.0521 18.2678 73.1669 18.2678C73.5624 18.2678 73.8571 18.1951 74.051 18.0497C74.2475 17.9017 74.3457 17.6899 74.3457 17.4144C74.3457 17.2664 74.3125 17.1375 74.2462 17.0278C74.1824 16.9181 74.0931 16.8186 73.9783 16.7293C73.8635 16.6374 73.727 16.5507 73.5688 16.469C73.4131 16.3848 73.2447 16.2968 73.0636 16.205C72.8722 16.108 72.6936 16.0098 72.5278 15.9103C72.3619 15.8108 72.2178 15.701 72.0953 15.5811C71.9728 15.4612 71.8759 15.326 71.8044 15.1754C71.7355 15.0223 71.7011 14.8437 71.7011 14.6396C71.7011 14.3896 71.7559 14.1727 71.8657 13.989C71.9754 13.8027 72.1195 13.6496 72.2981 13.5297C72.4767 13.4098 72.6796 13.3205 72.9067 13.2618C73.1363 13.2031 73.3698 13.1738 73.607 13.1738C74.148 13.1738 74.5422 13.2389 74.7897 13.369V14.0923C74.4656 13.8678 74.0497 13.7555 73.542 13.7555C73.4017 13.7555 73.2613 13.7708 73.121 13.8015C72.9807 13.8295 72.8556 13.8767 72.7459 13.9431C72.6362 14.0094 72.5469 14.0949 72.478 14.1995C72.4091 14.3041 72.3747 14.4317 72.3747 14.5822C72.3747 14.7225 72.4002 14.8437 72.4512 14.9458C72.5048 15.0479 72.5826 15.141 72.6847 15.2252C72.7867 15.3094 72.9105 15.391 73.0559 15.4701C73.2039 15.5492 73.3736 15.636 73.5649 15.7304C73.7614 15.8273 73.9477 15.9294 74.1237 16.0366C74.2998 16.1437 74.4541 16.2624 74.5868 16.3925C74.7195 16.5226 74.8241 16.6668 74.9007 16.825C74.9798 16.9832 75.0193 17.1643 75.0193 17.3684C75.0193 17.6389 74.9657 17.8685 74.8586 18.0573C74.7539 18.2436 74.6111 18.3954 74.4299 18.5128C74.2513 18.6302 74.0446 18.7144 73.8099 18.7654C73.5752 18.819 73.3277 18.8458 73.0674 18.8458C72.9807 18.8458 72.8735 18.8381 72.7459 18.8228C72.6183 18.81 72.4882 18.7896 72.3555 18.7616C72.2229 18.736 72.0966 18.7042 71.9766 18.6659C71.8593 18.6251 71.7649 18.5804 71.6934 18.5319ZM78.9614 18.7539H76.1139V13.2656H76.7569V18.1722H78.9614V18.7539ZM84.2812 18.7539H83.5694L82.9876 17.2154H80.6607L80.1134 18.7539H79.3977L81.5026 13.2656H82.1686L84.2812 18.7539ZM82.7771 16.6374L81.916 14.299C81.8879 14.2225 81.8599 14.1 81.8318 13.9316H81.8165C81.791 14.0872 81.7616 14.2097 81.7285 14.299L80.875 16.6374H82.7771ZM89.027 18.7539H88.2616L87.343 17.2154C87.2588 17.0725 87.1772 16.9513 87.0981 16.8518C87.019 16.7497 86.9373 16.6668 86.8531 16.603C86.7715 16.5392 86.6822 16.4933 86.5852 16.4652C86.4908 16.4346 86.3837 16.4193 86.2637 16.4193H85.7356V18.7539H85.0926V13.2656H86.7307C86.9705 13.2656 87.1912 13.2963 87.3928 13.3575C87.5969 13.4162 87.7729 13.5068 87.9209 13.6292C88.0715 13.7517 88.1888 13.9048 88.273 14.0885C88.3572 14.2697 88.3993 14.4827 88.3993 14.7276C88.3993 14.919 88.37 15.0951 88.3113 15.2558C88.2552 15.414 88.1735 15.5556 88.0664 15.6806C87.9618 15.8057 87.8342 15.9128 87.6836 16.0021C87.5357 16.0889 87.3685 16.1565 87.1823 16.205V16.2203C87.2741 16.2611 87.3532 16.3083 87.4196 16.3619C87.4885 16.4129 87.5535 16.4741 87.6148 16.5456C87.676 16.617 87.7359 16.6987 87.7946 16.7905C87.8559 16.8798 87.9235 16.9844 87.9975 17.1044L89.027 18.7539ZM85.7356 13.8474V15.8375H86.6082C86.7689 15.8375 86.9169 15.8133 87.0521 15.7648C87.1899 15.7164 87.3086 15.6475 87.4081 15.5582C87.5076 15.4663 87.5854 15.3553 87.6415 15.2252C87.6977 15.0925 87.7257 14.9445 87.7257 14.7812C87.7257 14.4878 87.6301 14.2595 87.4387 14.0962C87.2499 13.9303 86.9756 13.8474 86.6158 13.8474H85.7356ZM90.4278 18.7539H89.7848V13.2656H90.4278V18.7539ZM96.2988 18.7539H95.5103L92.6858 14.3794C92.6144 14.2697 92.5557 14.1548 92.5098 14.0349H92.4868C92.5072 14.1523 92.5174 14.4036 92.5174 14.7889V18.7539H91.8745V13.2656H92.7088L95.4568 17.5713C95.5716 17.7499 95.6456 17.8724 95.6787 17.9387H95.6941C95.6685 17.7805 95.6558 17.5113 95.6558 17.1312V13.2656H96.2988V18.7539ZM98.3808 18.7539H97.7378V13.2656H98.3808V18.7539ZM105.913 18.7539H105.147L104.229 17.2154C104.145 17.0725 104.063 16.9513 103.984 16.8518C103.905 16.7497 103.823 16.6668 103.739 16.603C103.657 16.5392 103.568 16.4933 103.471 16.4652C103.377 16.4346 103.269 16.4193 103.15 16.4193H102.621V18.7539H101.978V13.2656H103.616C103.856 13.2656 104.077 13.2963 104.279 13.3575C104.483 13.4162 104.659 13.5068 104.807 13.6292C104.957 13.7517 105.075 13.9048 105.159 14.0885C105.243 14.2697 105.285 14.4827 105.285 14.7276C105.285 14.919 105.256 15.0951 105.197 15.2558C105.141 15.414 105.059 15.5556 104.952 15.6806C104.848 15.8057 104.72 15.9128 104.569 16.0021C104.421 16.0889 104.254 16.1565 104.068 16.205V16.2203C104.16 16.2611 104.239 16.3083 104.305 16.3619C104.374 16.4129 104.439 16.4741 104.501 16.5456C104.562 16.617 104.622 16.6987 104.68 16.7905C104.742 16.8798 104.809 16.9844 104.883 17.1044L105.913 18.7539ZM102.621 13.8474V15.8375H103.494C103.655 15.8375 103.803 15.8133 103.938 15.7648C104.076 15.7164 104.194 15.6475 104.294 15.5582C104.393 15.4663 104.471 15.3553 104.527 15.2252C104.583 15.0925 104.612 14.9445 104.612 14.7812C104.612 14.4878 104.516 14.2595 104.324 14.0962C104.136 13.9303 103.861 13.8474 103.502 13.8474H102.621ZM107.314 18.7539H106.671V13.2656H107.314V18.7539ZM112.84 13.2656L110.808 18.7539H110.1L108.11 13.2656H108.825L110.345 17.6172C110.393 17.7575 110.43 17.9196 110.456 18.1033H110.471C110.491 17.9502 110.534 17.7856 110.597 17.6096L112.147 13.2656H112.84ZM115.649 18.8458C114.871 18.8458 114.247 18.5893 113.778 18.0765C113.311 17.5636 113.077 16.8964 113.077 16.0748C113.077 15.192 113.316 14.4878 113.793 13.9622C114.27 13.4366 114.92 13.1738 115.741 13.1738C116.499 13.1738 117.109 13.4289 117.571 13.9392C118.035 14.4495 118.267 15.1168 118.267 15.9409C118.267 16.8365 118.03 17.5445 117.555 18.065C117.081 18.5855 116.445 18.8458 115.649 18.8458ZM115.695 13.7555C115.119 13.7555 114.65 13.9635 114.291 14.3794C113.931 14.7953 113.751 15.3413 113.751 16.0174C113.751 16.6936 113.926 17.2383 114.275 17.6517C114.627 18.0625 115.085 18.2678 115.649 18.2678C116.251 18.2678 116.726 18.0714 117.073 17.6785C117.42 17.2855 117.594 16.7357 117.594 16.0289C117.594 15.3043 117.425 14.7442 117.088 14.3488C116.752 13.9533 116.287 13.7555 115.695 13.7555ZM120.713 16.7867C120.713 17.4373 120.575 17.9438 120.299 18.3061C120.024 18.6659 119.655 18.8458 119.193 18.8458C118.979 18.8458 118.803 18.8151 118.665 18.7539V18.1186C118.803 18.2181 118.982 18.2678 119.201 18.2678C119.78 18.2678 120.07 17.7767 120.07 16.7944V13.2656H120.713V16.7867ZM124.957 18.7539H122.11V13.2656H122.753V18.1722H124.957V18.7539ZM130.277 18.7539H129.565L128.983 17.2154H126.656L126.109 18.7539H125.393L127.498 13.2656H128.164L130.277 18.7539ZM128.773 16.6374L127.912 14.299C127.884 14.2225 127.856 14.1 127.828 13.9316H127.812C127.787 14.0872 127.757 14.2097 127.724 14.299L126.871 16.6374H128.773ZM135.513 18.7539H134.724L131.9 14.3794C131.828 14.2697 131.77 14.1548 131.724 14.0349H131.701C131.721 14.1523 131.731 14.4036 131.731 14.7889V18.7539H131.088V13.2656H131.923L134.671 17.5713C134.785 17.7499 134.859 17.8724 134.893 17.9387H134.908C134.882 17.7805 134.87 17.5113 134.87 17.1312V13.2656H135.513V18.7539ZM140.197 13.8474H138.613V18.7539H137.97V13.8474H136.389V13.2656H140.197V13.8474ZM141.705 18.7539H141.062V13.2656H141.705V18.7539ZM147.086 18.7539H146.321L145.402 17.2154C145.318 17.0725 145.236 16.9513 145.157 16.8518C145.078 16.7497 144.997 16.6668 144.912 16.603C144.831 16.5392 144.741 16.4933 144.644 16.4652C144.55 16.4346 144.443 16.4193 144.323 16.4193H143.795V18.7539H143.152V13.2656H144.79C145.03 13.2656 145.25 13.2963 145.452 13.3575C145.656 13.4162 145.832 13.5068 145.98 13.6292C146.131 13.7517 146.248 13.9048 146.332 14.0885C146.416 14.2697 146.459 14.4827 146.459 14.7276C146.459 14.919 146.429 15.0951 146.371 15.2558C146.314 15.414 146.233 15.5556 146.126 15.6806C146.021 15.8057 145.893 15.9128 145.743 16.0021C145.595 16.0889 145.428 16.1565 145.242 16.205V16.2203C145.333 16.2611 145.412 16.3083 145.479 16.3619C145.548 16.4129 145.613 16.4741 145.674 16.5456C145.735 16.617 145.795 16.6987 145.854 16.7905C145.915 16.8798 145.983 16.9844 146.057 17.1044L147.086 18.7539ZM143.795 13.8474V15.8375H144.667C144.828 15.8375 144.976 15.8133 145.111 15.7648C145.249 15.7164 145.368 15.6475 145.467 15.5582C145.567 15.4663 145.645 15.3553 145.701 15.2252C145.757 15.0925 145.785 14.9445 145.785 14.7812C145.785 14.4878 145.689 14.2595 145.498 14.0962C145.309 13.9303 145.035 13.8474 144.675 13.8474H143.795ZM148.487 18.7539H147.844V13.2656H148.487V18.7539ZM149.677 18.5319V17.7741C149.764 17.8507 149.867 17.9196 149.987 17.9808C150.11 18.042 150.237 18.0943 150.37 18.1377C150.505 18.1785 150.64 18.2104 150.776 18.2334C150.911 18.2564 151.036 18.2678 151.151 18.2678C151.546 18.2678 151.841 18.1951 152.035 18.0497C152.231 17.9017 152.33 17.6899 152.33 17.4144C152.33 17.2664 152.296 17.1375 152.23 17.0278C152.166 16.9181 152.077 16.8186 151.962 16.7293C151.847 16.6374 151.711 16.5507 151.553 16.469C151.397 16.3848 151.229 16.2968 151.047 16.205C150.856 16.108 150.677 16.0098 150.512 15.9103C150.346 15.8108 150.202 15.701 150.079 15.5811C149.957 15.4612 149.86 15.326 149.788 15.1754C149.719 15.0223 149.685 14.8437 149.685 14.6396C149.685 14.3896 149.74 14.1727 149.85 13.989C149.959 13.8027 150.103 13.6496 150.282 13.5297C150.461 13.4098 150.663 13.3205 150.891 13.2618C151.12 13.2031 151.354 13.1738 151.591 13.1738C152.132 13.1738 152.526 13.2389 152.774 13.369V14.0923C152.449 13.8678 152.034 13.7555 151.526 13.7555C151.386 13.7555 151.245 13.7708 151.105 13.8015C150.965 13.8295 150.839 13.8767 150.73 13.9431C150.62 14.0094 150.531 14.0949 150.462 14.1995C150.393 14.3041 150.359 14.4317 150.359 14.5822C150.359 14.7225 150.384 14.8437 150.435 14.9458C150.489 15.0479 150.566 15.141 150.669 15.2252C150.771 15.3094 150.894 15.391 151.04 15.4701C151.188 15.5492 151.357 15.636 151.549 15.7304C151.745 15.8273 151.932 15.9294 152.108 16.0366C152.284 16.1437 152.438 16.2624 152.571 16.3925C152.703 16.5226 152.808 16.6668 152.885 16.825C152.964 16.9832 153.003 17.1643 153.003 17.3684C153.003 17.6389 152.95 17.8685 152.842 18.0573C152.738 18.2436 152.595 18.3954 152.414 18.5128C152.235 18.6302 152.028 18.7144 151.794 18.7654C151.559 18.819 151.312 18.8458 151.051 18.8458C150.965 18.8458 150.857 18.8381 150.73 18.8228C150.602 18.81 150.472 18.7896 150.339 18.7616C150.207 18.736 150.08 18.7042 149.96 18.6659C149.843 18.6251 149.749 18.5804 149.677 18.5319ZM158.224 18.7539H157.581V16.2509H154.741V18.7539H154.098V13.2656H154.741V15.673H157.581V13.2656H158.224V18.7539ZM167.409 18.7539H166.77V15.0721C166.77 14.7812 166.788 14.4253 166.823 14.0043H166.808C166.747 14.2518 166.692 14.4291 166.643 14.5363L164.768 18.7539H164.454L162.583 14.5669C162.529 14.4444 162.474 14.2569 162.418 14.0043H162.403C162.423 14.2237 162.433 14.5822 162.433 15.0798V18.7539H161.813V13.2656H162.663L164.347 17.0929C164.477 17.3863 164.561 17.6057 164.6 17.7512H164.623C164.732 17.4501 164.82 17.2256 164.887 17.0776L166.605 13.2656H167.409V18.7539ZM173.104 18.7539H172.392L171.81 17.2154H169.483L168.936 18.7539H168.22L170.325 13.2656H170.991L173.104 18.7539ZM171.6 16.6374L170.739 14.299C170.711 14.2225 170.682 14.1 170.654 13.9316H170.639C170.614 14.0872 170.584 14.2097 170.551 14.299L169.698 16.6374H171.6ZM177.85 18.7539H177.084L176.166 17.2154C176.081 17.0725 176 16.9513 175.921 16.8518C175.842 16.7497 175.76 16.6668 175.676 16.603C175.594 16.5392 175.505 16.4933 175.408 16.4652C175.313 16.4346 175.206 16.4193 175.086 16.4193H174.558V18.7539H173.915V13.2656H175.553C175.793 13.2656 176.014 13.2963 176.215 13.3575C176.419 13.4162 176.596 13.5068 176.744 13.6292C176.894 13.7517 177.011 13.9048 177.096 14.0885C177.18 14.2697 177.222 14.4827 177.222 14.7276C177.222 14.919 177.193 15.0951 177.134 15.2558C177.078 15.414 176.996 15.5556 176.889 15.6806C176.784 15.8057 176.657 15.9128 176.506 16.0021C176.358 16.0889 176.191 16.1565 176.005 16.205V16.2203C176.097 16.2611 176.176 16.3083 176.242 16.3619C176.311 16.4129 176.376 16.4741 176.437 16.5456C176.499 16.617 176.559 16.6987 176.617 16.7905C176.678 16.8798 176.746 16.9844 176.82 17.1044L177.85 18.7539ZM174.558 13.8474V15.8375H175.431C175.592 15.8375 175.74 15.8133 175.875 15.7648C176.013 15.7164 176.131 15.6475 176.231 15.5582C176.33 15.4663 176.408 15.3553 176.464 15.2252C176.52 15.0925 176.548 14.9445 176.548 14.7812C176.548 14.4878 176.453 14.2595 176.261 14.0962C176.072 13.9303 175.798 13.8474 175.438 13.8474H174.558ZM182.427 18.7539H181.531L179.411 16.2432C179.332 16.1488 179.284 16.085 179.266 16.0519H179.25V18.7539H178.607V13.2656H179.25V15.8452H179.266C179.301 15.7891 179.35 15.7266 179.411 15.6577L181.463 13.2656H182.262L179.909 15.8988L182.427 18.7539ZM187.402 18.7539H186.691L186.109 17.2154H183.782L183.235 18.7539H182.519L184.624 13.2656H185.29L187.402 18.7539ZM185.898 16.6374L185.037 14.299C185.009 14.2225 184.981 14.1 184.953 13.9316H184.938C184.912 14.0872 184.883 14.2097 184.85 14.299L183.996 16.6374H185.898ZM192.026 13.4187L188.811 18.1722H191.949V18.7539H187.85V18.574L191.038 13.8474H188.107V13.2656H192.026V13.4187ZM193.557 18.7539H192.914V13.2656H193.557V18.7539Z" fill="#FEFEFE"/>
<path d="M198.734 16.6949L197.582 17.9885H196.95L198.106 16.6949L196.95 15.3859H197.582L198.734 16.6949ZM197.245 16.6949L196.101 17.9885H195.45L196.629 16.6949L195.45 15.3859H196.101L197.245 16.6949Z" fill="#FEFEFE"/>
<path d="M206.202 18.7539H205.563V15.0721C205.563 14.7812 205.58 14.4253 205.616 14.0043H205.601C205.54 14.2518 205.485 14.4291 205.436 14.5363L203.561 18.7539H203.247L201.376 14.5669C201.322 14.4444 201.267 14.2569 201.211 14.0043H201.196C201.216 14.2237 201.226 14.5822 201.226 15.0798V18.7539H200.606V13.2656H201.456L203.14 17.0929C203.27 17.3863 203.354 17.6057 203.392 17.7512H203.415C203.525 17.4501 203.613 17.2256 203.68 17.0776L205.398 13.2656H206.202V18.7539ZM211.384 18.5243C210.978 18.7386 210.473 18.8458 209.868 18.8458C209.087 18.8458 208.462 18.5944 207.993 18.0918C207.523 17.5891 207.289 16.9296 207.289 16.1131C207.289 15.2354 207.553 14.5261 208.081 13.9852C208.609 13.4442 209.279 13.1738 210.09 13.1738C210.611 13.1738 211.042 13.2491 211.384 13.3996V14.0847C210.991 13.8652 210.557 13.7555 210.082 13.7555C209.452 13.7555 208.941 13.966 208.548 14.387C208.157 14.808 207.962 15.3706 207.962 16.0748C207.962 16.7433 208.145 17.2766 208.509 17.6746C208.877 18.0701 209.358 18.2678 209.952 18.2678C210.503 18.2678 210.981 18.1454 211.384 17.9004V18.5243ZM216.627 18.7539H215.984V16.2509H213.144V18.7539H212.501V13.2656H213.144V15.673H215.984V13.2656H216.627V18.7539ZM219.471 16.7867C219.471 17.4373 219.333 17.9438 219.057 18.3061C218.782 18.6659 218.413 18.8458 217.951 18.8458C217.737 18.8458 217.561 18.8151 217.423 18.7539V18.1186C217.561 18.2181 217.74 18.2678 217.959 18.2678C218.538 18.2678 218.828 17.7767 218.828 16.7944V13.2656H219.471V16.7867Z" fill="#FEFEFE"/>
<path d="M53.5709 38.7539V24.4462H46.7758V22.5863H62.4015V24.4462H55.5918V38.7539H53.5709ZM63.2656 38.7539V22.5863H75.977V24.4462H65.2719V29.191H71.7448V31.0509H65.2719V36.894H76.636V38.7539H63.2656ZM92.54 33.599L94.1509 34.7999C93.4089 36.2058 92.3936 37.2895 91.1049 38.051C89.8161 38.8027 88.3517 39.1786 86.7115 39.1786C84.2903 39.1786 82.2888 38.3829 80.7072 36.7915C79.1354 35.1904 78.3495 33.1646 78.3495 30.714C78.3495 28.2538 79.1403 26.2279 80.7219 24.6366C82.3035 23.0354 84.3 22.2349 86.7115 22.2349C88.2052 22.2349 89.5672 22.5619 90.7973 23.216C92.0275 23.8702 93.0282 24.8025 93.7995 26.0131L92.1153 27.214C91.6077 26.2475 90.8754 25.4908 89.9187 24.9441C88.9619 24.3974 87.8928 24.124 86.7115 24.124C84.8956 24.124 83.3921 24.7488 82.201 25.9985C81.0099 27.2384 80.4143 28.8103 80.4143 30.714C80.4143 32.6178 81.0099 34.1897 82.201 35.4296C83.3921 36.6695 84.8956 37.2895 86.7115 37.2895C87.9807 37.2895 89.1083 36.977 90.0944 36.3522C91.0805 35.7274 91.8957 34.8096 92.54 33.599ZM97.7681 38.7539V22.5863H99.8037V28.9713H109.337V22.5863H111.358V38.7539H109.337V30.8312H99.8037V38.7539H97.7681ZM116.25 38.7539V22.5863H117.304L127.789 34.6681V22.5863H129.81V38.7539H128.785L118.256 26.6722V38.7539H116.25ZM141.716 37.2895C143.532 37.2895 145.036 36.6695 146.227 35.4296C147.418 34.1897 148.014 32.6178 148.014 30.714C148.014 28.8005 147.418 27.2238 146.227 25.9839C145.046 24.744 143.542 24.124 141.716 24.124C139.901 24.124 138.397 24.7488 137.206 25.9985C136.015 27.2384 135.419 28.8103 135.419 30.714C135.419 32.6178 136.015 34.1897 137.206 35.4296C138.397 36.6695 139.901 37.2895 141.716 37.2895ZM141.716 39.1786C139.295 39.1786 137.294 38.3829 135.712 36.7915C134.14 35.1904 133.354 33.1646 133.354 30.714C133.354 28.2538 134.145 26.2279 135.727 24.6366C137.308 23.0354 139.305 22.2349 141.716 22.2349C144.138 22.2349 146.144 23.0354 147.735 24.6366C149.327 26.2377 150.122 28.2635 150.122 30.714C150.122 33.1646 149.327 35.1904 147.735 36.7915C146.154 38.3829 144.147 39.1786 141.716 39.1786ZM166.554 33.599L168.165 34.7999C167.423 36.2058 166.407 37.2895 165.118 38.051C163.83 38.8027 162.365 39.1786 160.725 39.1786C158.304 39.1786 156.302 38.3829 154.721 36.7915C153.149 35.1904 152.363 33.1646 152.363 30.714C152.363 28.2538 153.154 26.2279 154.735 24.6366C156.317 23.0354 158.314 22.2349 160.725 22.2349C162.219 22.2349 163.581 22.5619 164.811 23.216C166.041 23.8702 167.042 24.8025 167.813 26.0131L166.129 27.214C165.621 26.2475 164.889 25.4908 163.932 24.9441C162.975 24.3974 161.906 24.124 160.725 24.124C158.909 24.124 157.406 24.7488 156.215 25.9985C155.023 27.2384 154.428 28.8103 154.428 30.714C154.428 32.6178 155.023 34.1897 156.215 35.4296C157.406 36.6695 158.909 37.2895 160.725 37.2895C161.994 37.2895 163.122 36.977 164.108 36.3522C165.094 35.7274 165.909 34.8096 166.554 33.599ZM178.855 37.2895C180.671 37.2895 182.174 36.6695 183.366 35.4296C184.557 34.1897 185.152 32.6178 185.152 30.714C185.152 28.8005 184.557 27.2238 183.366 25.9839C182.184 24.744 180.681 24.124 178.855 24.124C177.039 24.124 175.536 24.7488 174.345 25.9985C173.153 27.2384 172.558 28.8103 172.558 30.714C172.558 32.6178 173.153 34.1897 174.345 35.4296C175.536 36.6695 177.039 37.2895 178.855 37.2895ZM178.855 39.1786C176.434 39.1786 174.432 38.3829 172.851 36.7915C171.279 35.1904 170.493 33.1646 170.493 30.714C170.493 28.2538 171.284 26.2279 172.865 24.6366C174.447 23.0354 176.444 22.2349 178.855 22.2349C181.276 22.2349 183.283 23.0354 184.874 24.6366C186.465 26.2377 187.261 28.2635 187.261 30.714C187.261 33.1646 186.465 35.1904 184.874 36.7915C183.292 38.3829 181.286 39.1786 178.855 39.1786ZM192.709 29.7914H199.841C200.856 29.7914 201.622 29.5669 202.14 29.1178C202.667 28.6687 202.931 28.0097 202.931 27.1408C202.931 26.2914 202.667 25.6324 202.14 25.1638C201.622 24.6854 200.89 24.4462 199.943 24.4462H192.709V29.7914ZM190.702 38.7539V22.5863H199.972C201.554 22.5863 202.794 22.9866 203.692 23.7872C204.59 24.578 205.039 25.6763 205.039 27.0822C205.039 28.2538 204.688 29.2594 203.985 30.099C203.282 30.9288 202.355 31.4463 201.203 31.6513L205.245 38.7539H203.019L198.977 31.6806H192.709V38.7539H190.702ZM210.634 29.7914H217.766C218.781 29.7914 219.547 29.5669 220.065 29.1178C220.592 28.6687 220.856 28.0097 220.856 27.1408C220.856 26.2914 220.592 25.6324 220.065 25.1638C219.547 24.6854 218.815 24.4462 217.868 24.4462H210.634V29.7914ZM208.627 38.7539V22.5863H217.897C219.469 22.5863 220.704 22.9768 221.602 23.7579C222.51 24.5389 222.964 25.608 222.964 26.965C222.964 28.3709 222.525 29.5083 221.646 30.3772C220.777 31.2461 219.616 31.6806 218.161 31.6806H210.634V38.7539H208.627Z" fill="#FEFEFE"/>
<path d="M227.188 22.6734H226.586V23.8279H227.188C227.528 23.8279 227.767 23.7859 227.904 23.7021C228.041 23.6158 228.11 23.471 228.11 23.2678C228.11 23.057 228.037 22.9058 227.893 22.8144C227.748 22.7204 227.513 22.6734 227.188 22.6734ZM227.279 22.3458C227.731 22.3458 228.065 22.4182 228.281 22.563C228.5 22.7077 228.609 22.9312 228.609 23.2335C228.609 23.4596 228.54 23.6488 228.403 23.8012C228.266 23.9536 228.082 24.0463 227.851 24.0793L228.567 25.5614H228.014L227.336 24.1479H226.586V25.5614H226.102V22.3458H227.279ZM229.683 24.0069C229.683 23.6666 229.622 23.3453 229.5 23.043C229.378 22.7408 229.203 22.4741 228.975 22.2429C228.736 22.0067 228.464 21.8264 228.159 21.7019C227.857 21.5749 227.536 21.5114 227.195 21.5114C226.865 21.5114 226.551 21.5724 226.254 21.6943C225.96 21.8162 225.695 21.994 225.462 22.2277C225.22 22.4741 225.035 22.7496 224.906 23.0544C224.779 23.3567 224.715 23.6717 224.715 23.9993C224.715 24.327 224.777 24.6406 224.902 24.9404C225.029 25.2401 225.21 25.5093 225.447 25.7481C225.685 25.9843 225.955 26.1659 226.254 26.2929C226.554 26.4174 226.868 26.4796 227.195 26.4796C227.525 26.4796 227.843 26.4161 228.148 26.2891C228.455 26.1621 228.731 25.9792 228.975 25.7405C229.206 25.5144 229.381 25.2553 229.5 24.9632C229.622 24.6686 229.683 24.3498 229.683 24.0069ZM227.195 21.2066C227.581 21.2066 227.943 21.2765 228.281 21.4162C228.621 21.5559 228.922 21.7591 229.184 22.0257C229.443 22.2848 229.641 22.5845 229.778 22.9249C229.918 23.2627 229.988 23.6209 229.988 23.9993C229.988 24.3803 229.919 24.7372 229.782 25.0699C229.648 25.4026 229.448 25.6985 229.184 25.9576C228.912 26.2269 228.605 26.4339 228.262 26.5786C227.919 26.7209 227.564 26.792 227.195 26.792C226.822 26.792 226.466 26.7222 226.129 26.5825C225.793 26.4402 225.494 26.2345 225.229 25.9652C224.963 25.7011 224.759 25.4001 224.62 25.0623C224.48 24.7245 224.41 24.3701 224.41 23.9993C224.41 23.6336 224.481 23.2792 224.624 22.9363C224.768 22.5909 224.975 22.2823 225.245 22.0105C225.501 21.7489 225.796 21.5495 226.129 21.4123C226.461 21.2752 226.817 21.2066 227.195 21.2066Z" fill="#FEFEFE"/>
</svg>
