<svg width="95" height="96" viewBox="0 0 95 96" fill="none" xmlns="http://www.w3.org/2000/svg">
<path d="M77.5 3C73.5218 3 69.7064 4.58035 66.8934 7.3934C64.0804 10.2064 62.5 14.0218 62.5 18V78C62.5 81.9782 64.0804 85.7936 66.8934 88.6066C69.7064 91.4196 73.5218 93 77.5 93C81.4782 93 85.2936 91.4196 88.1066 88.6066C90.9196 85.7936 92.5 81.9782 92.5 78C92.5 74.0218 90.9196 70.2064 88.1066 67.3934C85.2936 64.5804 81.4782 63 77.5 63H17.5C13.5218 63 9.70644 64.5804 6.8934 67.3934C4.08035 70.2064 2.5 74.0218 2.5 78C2.5 81.9782 4.08035 85.7936 6.8934 88.6066C9.70644 91.4196 13.5218 93 17.5 93C21.4782 93 25.2936 91.4196 28.1066 88.6066C30.9196 85.7936 32.5 81.9782 32.5 78V18C32.5 14.0218 30.9196 10.2064 28.1066 7.3934C25.2936 4.58035 21.4782 3 17.5 3C13.5218 3 9.70644 4.58035 6.8934 7.3934C4.08035 10.2064 2.5 14.0218 2.5 18C2.5 21.9782 4.08035 25.7936 6.8934 28.6066C9.70644 31.4196 13.5218 33 17.5 33H77.5C81.4782 33 85.2936 31.4196 88.1066 28.6066C90.9196 25.7936 92.5 21.9782 92.5 18C92.5 14.0218 90.9196 10.2064 88.1066 7.3934C85.2936 4.58035 81.4782 3 77.5 3Z" stroke="#424242" stroke-width="5" stroke-linecap="round" stroke-linejoin="round"/>
</svg>
