<svg width="120" height="120" viewBox="0 0 120 120" fill="none" xmlns="http://www.w3.org/2000/svg">
<g id="command">
<path id="Vector" d="M90 15C86.0218 15 82.2064 16.5804 79.3934 19.3934C76.5804 22.2064 75 26.0218 75 30V90C75 93.9782 76.5804 97.7936 79.3934 100.607C82.2064 103.42 86.0218 105 90 105C93.9782 105 97.7936 103.42 100.607 100.607C103.42 97.7936 105 93.9782 105 90C105 86.0218 103.42 82.2064 100.607 79.3934C97.7936 76.5804 93.9782 75 90 75H30C26.0218 75 22.2064 76.5804 19.3934 79.3934C16.5804 82.2064 15 86.0218 15 90C15 93.9782 16.5804 97.7936 19.3934 100.607C22.2064 103.42 26.0218 105 30 105C33.9782 105 37.7936 103.42 40.6066 100.607C43.4196 97.7936 45 93.9782 45 90V30C45 26.0218 43.4196 22.2064 40.6066 19.3934C37.7936 16.5804 33.9782 15 30 15C26.0218 15 22.2064 16.5804 19.3934 19.3934C16.5804 22.2064 15 26.0218 15 30C15 33.9782 16.5804 37.7936 19.3934 40.6066C22.2064 43.4196 26.0218 45 30 45H90C93.9782 45 97.7936 43.4196 100.607 40.6066C103.42 37.7936 105 33.9782 105 30C105 26.0218 103.42 22.2064 100.607 19.3934C97.7936 16.5804 93.9782 15 90 15Z" stroke="#424242" stroke-width="5" stroke-linecap="round" stroke-linejoin="round"/>
</g>
</svg>
