<svg width="27" height="19" viewBox="0 0 27 19" fill="none" xmlns="http://www.w3.org/2000/svg">
<path d="M26.6209 9.08173L25.0631 2.07029C24.8126 0.947469 23.8348 0.163627 22.6857 0.163627C21.3431 0.163627 20.25 1.25623 20.25 2.59874V2.9761C20.25 3.28703 20.5016 3.53862 20.8125 3.53862C21.1234 3.53862 21.375 3.28703 21.375 2.9761V2.59874C21.375 1.87638 21.9628 1.28861 22.6857 1.28861C23.3042 1.28861 23.8304 1.71101 23.9645 2.31471L25.5223 9.32563C25.7157 10.1968 25.8299 11.0856 25.864 11.9761H25.8181C25.5312 9.14158 23.1588 6.91356 20.25 6.91356C17.7067 6.91356 15.577 8.62136 14.8838 10.9424C14.5396 10.5795 14.086 10.2886 13.5 10.2886C12.9139 10.2886 12.4603 10.5795 12.1161 10.9424C11.4229 8.62136 9.29326 6.91356 6.74999 6.91356C3.84116 6.91356 1.46881 9.14158 1.18183 11.9761H1.13595C1.17002 11.0856 1.28429 10.1968 1.47761 9.32563L3.03549 2.31524C3.16954 1.71101 3.69578 1.28855 4.3143 1.28855C5.03718 1.28855 5.62495 1.87633 5.62495 2.59868V2.97605C5.62495 3.28697 5.87655 3.53857 6.18747 3.53857C6.49839 3.53857 6.74999 3.28697 6.74999 2.97605V2.59868C6.74999 1.25618 5.65686 0.163574 4.3143 0.163574C3.16511 0.163574 2.18737 0.947469 1.93688 2.07081L0.379054 9.08173C0.127459 10.2166 0 11.3795 0 12.5386C0 12.8495 0.251595 13.1011 0.562517 13.1011H1.18188C1.46881 15.9356 3.84117 18.1636 6.75004 18.1636C9.80357 18.1636 12.2846 15.714 12.3609 12.6786C12.4739 12.3641 12.9234 11.4136 13.5 11.4136C14.0619 11.4136 14.5057 12.3111 14.639 12.6769C14.7144 15.7131 17.196 18.1636 20.25 18.1636C23.1588 18.1636 25.5312 15.9356 25.8182 13.1011H26.4375C26.7485 13.1011 27.0001 12.8495 27.0001 12.5386C27 11.3795 26.8725 10.2166 26.6209 9.08173ZM6.74999 17.0385C4.26815 17.0385 2.25001 15.0198 2.25001 12.5386C2.25001 10.0573 4.26821 8.0386 6.74999 8.0386C9.23177 8.0386 11.25 10.0573 11.25 12.5386C11.25 15.0198 9.23182 17.0385 6.74999 17.0385ZM20.25 17.0385C17.7681 17.0385 15.75 15.0198 15.75 12.5386C15.75 10.0573 17.7682 8.0386 20.25 8.0386C22.7317 8.0386 24.7499 10.0573 24.7499 12.5386C24.7499 15.0198 22.7318 17.0385 20.25 17.0385Z" fill="white"/>
<path d="M6.99999 10C5.34568 10 4 11.3457 4 13C4 13.2764 4.22364 13.5 4.50001 13.5C4.77639 13.5 5.00003 13.2764 5.00003 13C5.00003 11.897 5.8975 11 7.00004 11C7.27642 11 7.50006 10.7763 7.50006 10.5C7.50001 10.2236 7.27637 10 6.99999 10Z" fill="white"/>
<path d="M21 10C19.3457 10 18 11.3457 18 13C18 13.2764 18.2236 13.5 18.5 13.5C18.7764 13.5 19 13.2764 19 13C19 11.897 19.8975 11 21 11C21.2764 11 21.5001 10.7763 21.5001 10.5C21.5 10.2236 21.2764 10 21 10Z" fill="white"/>
</svg>
