<svg width="15" height="16" viewBox="0 0 15 16" fill="none" xmlns="http://www.w3.org/2000/svg">
<path d="M7.5 0.663574C6.01664 0.663574 4.56659 1.10344 3.33323 1.92755C2.09986 2.75166 1.13856 3.923 0.570907 5.29345C0.00324963 6.66389 -0.145275 8.17189 0.144114 9.62675C0.433503 11.0816 1.14781 12.418 2.1967 13.4669C3.2456 14.5158 4.58197 15.2301 6.03682 15.5195C7.49168 15.8088 8.99968 15.6603 10.3701 15.0927C11.7406 14.525 12.9119 13.5637 13.736 12.3303C14.5601 11.097 15 9.64693 15 8.16357C14.9978 6.17513 14.2069 4.26876 12.8009 2.86272C11.3948 1.45668 9.48844 0.66579 7.5 0.663574ZM1.04651 8.16357C1.04779 7.44103 1.17139 6.72392 1.4121 6.04264C1.84465 9.18915 4.60465 9.45497 4.72326 9.95659C4.78867 10.5216 4.80501 11.0911 4.7721 11.6589C4.82093 12.6287 6.16047 12.6426 6.67675 13.4101C6.8582 13.7736 6.9288 14.1824 6.87977 14.5857C5.28392 14.4298 3.80302 13.6862 2.72494 12.4993C1.64686 11.3124 1.04862 9.76701 1.04651 8.16357ZM9.25116 14.3729C9.72628 12.8847 11.153 12.3803 11.2981 11.5201C11.4147 10.8301 10.5077 10.4736 9.69349 10.3766C8.8793 10.2796 9.00419 9.43822 8.43 8.84171C7.85581 8.2452 7.48186 8.27799 6.67535 8.37915C5.86884 8.48032 5.17884 8.41404 4.95349 7.91799C4.72814 7.42194 5.01558 7.18473 4.42256 6.57008C4.3425 6.49337 4.28499 6.39619 4.25626 6.28909C4.22753 6.182 4.22869 6.06908 4.25961 5.96259C4.29052 5.85611 4.35002 5.76013 4.43163 5.68507C4.51325 5.61001 4.61386 5.55874 4.72256 5.53683C5.14116 5.43567 5.88558 6.16474 6.32163 6.07892C7.63465 5.80822 6.0607 3.2366 8.03372 2.59055C8.39591 2.46684 8.69457 2.20505 8.86465 1.86218C9.97134 2.1038 10.9946 2.63327 11.8312 3.39706C12.0746 3.95635 12.1617 4.57124 12.083 5.17613C11.82 5.99032 11.1572 6.57636 11.88 7.90822C12.6342 9.29939 13.0995 9.48846 13.4386 9.10543C13.5712 8.95984 13.7371 8.84853 13.9221 8.78101C13.7961 10.0747 13.2829 11.3003 12.4497 12.2979C11.6164 13.2954 10.5017 14.0186 9.25116 14.3729Z" fill="#D9D9D9"/>
</svg>
