<svg width="36" height="36" viewBox="0 0 36 36" fill="none" xmlns="http://www.w3.org/2000/svg">
<g id="phone">
<path id="Vector" d="M30.9992 24.466V28.38C31.0007 28.7434 30.9261 29.1031 30.7802 29.436C30.6344 29.7689 30.4205 30.0678 30.1522 30.3134C29.8839 30.559 29.5672 30.7461 29.2223 30.8625C28.8774 30.9789 28.5119 31.0221 28.1493 30.9894C24.1266 30.5532 20.2626 29.1813 16.8676 26.984C13.709 24.9809 11.031 22.3083 9.02394 19.1559C6.81462 15.7523 5.43971 11.8771 5.01061 7.84433C4.97794 7.48355 5.02091 7.11992 5.13676 6.77661C5.25262 6.43331 5.43884 6.11783 5.68355 5.85029C5.92827 5.58274 6.22612 5.36897 6.55815 5.2226C6.89018 5.07623 7.24911 5.00047 7.61208 5.00013H11.5339C12.1683 4.99389 12.7834 5.21811 13.2644 5.63098C13.7455 6.04386 14.0597 6.61721 14.1484 7.24418C14.314 8.49676 14.621 9.72664 15.0635 10.9103C15.2394 11.3773 15.2775 11.8848 15.1732 12.3727C15.069 12.8606 14.8267 13.3085 14.4753 13.6632L12.815 15.3202C14.676 18.5865 17.3858 21.291 20.6587 23.1483L22.3189 21.4913C22.6743 21.1405 23.1231 20.8988 23.612 20.7947C24.1008 20.6907 24.6093 20.7287 25.0772 20.9042C26.2633 21.3459 27.4956 21.6523 28.7507 21.8175C29.3857 21.9069 29.9657 22.2261 30.3802 22.7145C30.7948 23.2028 31.0151 23.8261 30.9992 24.466Z" stroke="#00E85D" stroke-width="2" stroke-linecap="round" stroke-linejoin="round"/>
</g>
</svg>
