<svg width="15" height="20" viewBox="0 0 15 20" fill="none" xmlns="http://www.w3.org/2000/svg">
<path d="M14.9995 14.8266V17.6492C15.0004 17.9112 14.9574 18.1706 14.8732 18.4107C14.7891 18.6508 14.6657 18.8663 14.5109 19.0434C14.3561 19.2206 14.1734 19.3554 13.9744 19.4394C13.7754 19.5233 13.5646 19.5545 13.3554 19.5309C11.0346 19.2163 8.80532 18.227 6.84668 16.6424C5.02441 15.1979 3.47945 13.2705 2.3215 10.9972C1.0469 8.54263 0.253681 5.74802 0.00612159 2.83978C-0.0127254 2.57959 0.0120608 2.31737 0.0789018 2.06979C0.145743 1.82221 0.253174 1.5947 0.394356 1.40176C0.535538 1.20882 0.707377 1.05466 0.898932 0.949106C1.09049 0.843551 1.29756 0.788911 1.50697 0.788665H3.76956C4.13558 0.784171 4.49041 0.945866 4.76793 1.24361C5.04546 1.54135 5.22672 1.95483 5.27795 2.40697C5.37345 3.31028 5.55055 4.19721 5.80589 5.05084C5.90736 5.3876 5.92932 5.75359 5.86917 6.10545C5.80902 6.4573 5.66928 6.78027 5.4665 7.03609L4.50867 8.231C5.58231 10.5865 7.14568 12.5369 9.03385 13.8763L9.99167 12.6814C10.1967 12.4284 10.4556 12.2541 10.7377 12.179C11.0197 12.104 11.3131 12.1314 11.583 12.258C12.2673 12.5765 12.9782 12.7974 13.7023 12.9166C14.0687 12.981 14.4033 13.2113 14.6424 13.5634C14.8816 13.9156 15.0087 14.3651 14.9995 14.8266Z" fill="#D9D9D9"/>
</svg>
