<svg width="287" height="215" viewBox="0 0 287 215" fill="none" xmlns="http://www.w3.org/2000/svg">
<g filter="url(#filter0_bd_5345_100623)">
<mask id="path-1-inside-1_5345_100623" fill="white">
<path d="M269.777 157.714C271.666 162.904 268.992 168.656 263.755 170.409C185.743 196.519 101.383 196.813 23.1898 171.249C17.9404 169.532 15.2271 163.799 17.0798 158.596L67.8966 15.8861C69.7492 10.6833 75.4636 7.9917 80.7481 9.5965C121.293 21.9088 164.612 21.7576 205.07 9.16248C210.343 7.52087 216.076 10.1725 217.965 15.3622L269.777 157.714Z"/>
</mask>
<path d="M269.777 157.714C271.666 162.904 268.992 168.656 263.755 170.409C185.743 196.519 101.383 196.813 23.1898 171.249C17.9404 169.532 15.2271 163.799 17.0798 158.596L67.8966 15.8861C69.7492 10.6833 75.4636 7.9917 80.7481 9.5965C121.293 21.9088 164.612 21.7576 205.07 9.16248C210.343 7.52087 216.076 10.1725 217.965 15.3622L269.777 157.714Z" fill="url(#paint0_radial_5345_100623)" fill-opacity="0.2" shape-rendering="crispEdges"/>
<path d="M269.777 157.714C271.666 162.904 268.992 168.656 263.755 170.409C185.743 196.519 101.383 196.813 23.1898 171.249C17.9404 169.532 15.2271 163.799 17.0798 158.596L67.8966 15.8861C69.7492 10.6833 75.4636 7.9917 80.7481 9.5965C121.293 21.9088 164.612 21.7576 205.07 9.16248C210.343 7.52087 216.076 10.1725 217.965 15.3622L269.777 157.714Z" stroke="url(#paint1_linear_5345_100623)" stroke-width="2" shape-rendering="crispEdges" mask="url(#path-1-inside-1_5345_100623)"/>
</g>
<defs>
<filter id="filter0_bd_5345_100623" x="-7.50391" y="-15.3213" width="301.887" height="229.53" filterUnits="userSpaceOnUse" color-interpolation-filters="sRGB">
<feFlood flood-opacity="0" result="BackgroundImageFix"/>
<feGaussianBlur in="BackgroundImageFix" stdDeviation="12"/>
<feComposite in2="SourceAlpha" operator="in" result="effect1_backgroundBlur_5345_100623"/>
<feColorMatrix in="SourceAlpha" type="matrix" values="0 0 0 0 0 0 0 0 0 0 0 0 0 0 0 0 0 0 127 0" result="hardAlpha"/>
<feOffset dy="8"/>
<feGaussianBlur stdDeviation="8"/>
<feComposite in2="hardAlpha" operator="out"/>
<feColorMatrix type="matrix" values="0 0 0 0 0 0 0 0 0 0 0 0 0 0 0 0 0 0 0.35 0"/>
<feBlend mode="normal" in2="effect1_backgroundBlur_5345_100623" result="effect2_dropShadow_5345_100623"/>
<feBlend mode="normal" in="SourceGraphic" in2="effect2_dropShadow_5345_100623" result="shape"/>
</filter>
<radialGradient id="paint0_radial_5345_100623" cx="0" cy="0" r="1" gradientUnits="userSpaceOnUse" gradientTransform="translate(142.203 -575.791) rotate(90) scale(766)">
<stop stop-color="white"/>
<stop offset="1" stop-color="white" stop-opacity="0.1"/>
</radialGradient>
<linearGradient id="paint1_linear_5345_100623" x1="142.203" y1="-575.791" x2="142.203" y2="190.209" gradientUnits="userSpaceOnUse">
<stop stop-color="white"/>
<stop offset="1" stop-color="white" stop-opacity="0"/>
</linearGradient>
</defs>
</svg>
