<svg width="27" height="26" viewBox="0 0 27 26" fill="none" xmlns="http://www.w3.org/2000/svg">
<path d="M16.3656 5.58713C17.4879 5.80567 18.5192 6.35348 19.3278 7.16044C20.1363 7.96741 20.6851 8.99682 20.9041 10.1169M16.3656 1C18.6972 1.25853 20.8714 2.30065 22.5313 3.95527C24.1912 5.60988 25.238 7.77864 25.5 10.1055M24.351 19.2568V22.6971C24.3523 23.0165 24.2868 23.3326 24.1586 23.6253C24.0304 23.9179 23.8424 24.1806 23.6066 24.3965C23.3708 24.6124 23.0924 24.7768 22.7893 24.8791C22.4861 24.9814 22.1649 25.0194 21.8462 24.9907C18.3106 24.6073 14.9145 23.4014 11.9306 21.4701C9.15443 19.7094 6.80076 17.3602 5.03669 14.5894C3.09489 11.5977 1.88647 8.19147 1.50933 4.64677C1.48061 4.32965 1.51837 4.01003 1.6202 3.70827C1.72203 3.40651 1.8857 3.12922 2.10078 2.89405C2.31586 2.65888 2.57765 2.47099 2.86948 2.34233C3.1613 2.21368 3.47677 2.14708 3.79579 2.14678H7.24273C7.80034 2.1413 8.34091 2.33839 8.7637 2.70129C9.18649 3.06419 9.46264 3.56816 9.54069 4.11925C9.68617 5.22024 9.95598 6.30126 10.345 7.34171C10.4996 7.75217 10.533 8.19826 10.4414 8.62711C10.3497 9.05597 10.1368 9.44962 9.82793 9.76142L8.36873 11.2178C10.0044 14.0889 12.3861 16.466 15.2626 18.0985L16.7218 16.6421C17.0342 16.3338 17.4286 16.1213 17.8583 16.0298C18.288 15.9384 18.7349 15.9718 19.1461 16.1261C20.1886 16.5143 21.2717 16.7836 22.3748 16.9288C22.9329 17.0074 23.4426 17.288 23.807 17.7172C24.1714 18.1464 24.365 18.6944 24.351 19.2568Z" stroke="white" stroke-width="2" stroke-linecap="round" stroke-linejoin="round"/>
</svg>
