<svg width="181" height="180" viewBox="0 0 181 180" fill="none" xmlns="http://www.w3.org/2000/svg">
<g id="cpu">
<path id="Vector" d="M135.5 30H45.5C37.2157 30 30.5 36.7157 30.5 45V135C30.5 143.284 37.2157 150 45.5 150H135.5C143.784 150 150.5 143.284 150.5 135V45C150.5 36.7157 143.784 30 135.5 30Z" stroke="url(#paint0_linear_4873_5716)" stroke-width="10" stroke-linecap="round" stroke-linejoin="round"/>
<path id="Vector_2" d="M113 67.5H68V112.5H113V67.5Z" stroke="url(#paint1_linear_4873_5716)" stroke-width="10" stroke-linecap="round" stroke-linejoin="round"/>
<path id="Vector_3" d="M68 7.5V30" stroke="url(#paint2_linear_4873_5716)" stroke-width="10" stroke-linecap="round" stroke-linejoin="round"/>
<path id="Vector_4" d="M113 7.5V30" stroke="url(#paint3_linear_4873_5716)" stroke-width="10" stroke-linecap="round" stroke-linejoin="round"/>
<path id="Vector_5" d="M68 150V172.5" stroke="url(#paint4_linear_4873_5716)" stroke-width="10" stroke-linecap="round" stroke-linejoin="round"/>
<path id="Vector_6" d="M113 150V172.5" stroke="url(#paint5_linear_4873_5716)" stroke-width="10" stroke-linecap="round" stroke-linejoin="round"/>
<path id="Vector_7" d="M150.5 67.5H173" stroke="url(#paint6_linear_4873_5716)" stroke-width="10" stroke-linecap="round" stroke-linejoin="round"/>
<path id="Vector_8" d="M150.5 105H173" stroke="url(#paint7_linear_4873_5716)" stroke-width="10" stroke-linecap="round" stroke-linejoin="round"/>
<path id="Vector_9" d="M8 67.5H30.5" stroke="url(#paint8_linear_4873_5716)" stroke-width="10" stroke-linecap="round" stroke-linejoin="round"/>
<path id="Vector_10" d="M8 105H30.5" stroke="url(#paint9_linear_4873_5716)" stroke-width="10" stroke-linecap="round" stroke-linejoin="round"/>
</g>
<defs>
<linearGradient id="paint0_linear_4873_5716" x1="90.5" y1="30" x2="90.5" y2="150" gradientUnits="userSpaceOnUse">
<stop stop-color="#00E85D"/>
<stop offset="1" stop-color="#008234"/>
</linearGradient>
<linearGradient id="paint1_linear_4873_5716" x1="90.5" y1="67.5" x2="90.5" y2="112.5" gradientUnits="userSpaceOnUse">
<stop stop-color="#00E85D"/>
<stop offset="1" stop-color="#008234"/>
</linearGradient>
<linearGradient id="paint2_linear_4873_5716" x1="68.5" y1="7.5" x2="68.5" y2="30" gradientUnits="userSpaceOnUse">
<stop stop-color="#00E85D"/>
<stop offset="1" stop-color="#008234"/>
</linearGradient>
<linearGradient id="paint3_linear_4873_5716" x1="113.5" y1="7.5" x2="113.5" y2="30" gradientUnits="userSpaceOnUse">
<stop stop-color="#00E85D"/>
<stop offset="1" stop-color="#008234"/>
</linearGradient>
<linearGradient id="paint4_linear_4873_5716" x1="68.5" y1="150" x2="68.5" y2="172.5" gradientUnits="userSpaceOnUse">
<stop stop-color="#00E85D"/>
<stop offset="1" stop-color="#008234"/>
</linearGradient>
<linearGradient id="paint5_linear_4873_5716" x1="113.5" y1="150" x2="113.5" y2="172.5" gradientUnits="userSpaceOnUse">
<stop stop-color="#00E85D"/>
<stop offset="1" stop-color="#008234"/>
</linearGradient>
<linearGradient id="paint6_linear_4873_5716" x1="161.75" y1="67.5" x2="161.75" y2="68.5" gradientUnits="userSpaceOnUse">
<stop stop-color="#00E85D"/>
<stop offset="1" stop-color="#008234"/>
</linearGradient>
<linearGradient id="paint7_linear_4873_5716" x1="161.75" y1="105" x2="161.75" y2="106" gradientUnits="userSpaceOnUse">
<stop stop-color="#00E85D"/>
<stop offset="1" stop-color="#008234"/>
</linearGradient>
<linearGradient id="paint8_linear_4873_5716" x1="19.25" y1="67.5" x2="19.25" y2="68.5" gradientUnits="userSpaceOnUse">
<stop stop-color="#00E85D"/>
<stop offset="1" stop-color="#008234"/>
</linearGradient>
<linearGradient id="paint9_linear_4873_5716" x1="19.25" y1="105" x2="19.25" y2="106" gradientUnits="userSpaceOnUse">
<stop stop-color="#00E85D"/>
<stop offset="1" stop-color="#008234"/>
</linearGradient>
</defs>
</svg>
