<svg width="41" height="41" viewBox="0 0 41 41" fill="none" xmlns="http://www.w3.org/2000/svg">
<g id="Group 48096002">
<path id="Vector" d="M22.0048 13.055C26.5756 13.055 28.5252 14.9636 28.5252 19.4382H32.8721C32.8721 12.5762 29.0142 8.79949 22.0048 8.79949V13.055ZM29.4424 24.6363C29.0247 24.2647 28.4759 24.0665 27.9118 24.0835C27.3477 24.1006 26.8125 24.3316 26.4191 24.7278L21.218 29.9641C19.9661 29.7301 17.4492 28.962 14.8584 26.4321C12.2677 23.8937 11.483 21.4234 11.2505 20.2063L16.595 15.1125C17.0002 14.7276 17.2365 14.2036 17.2539 13.6512C17.2714 13.0988 17.0686 12.5614 16.6885 12.1528L8.65754 3.50779C8.27727 3.0979 7.74877 2.84926 7.18426 2.8147C6.61976 2.78014 6.06372 2.96236 5.63425 3.32268L0.917836 7.28241C0.542069 7.6516 0.317785 8.14297 0.287532 8.66331C0.25493 9.19525 -0.36668 21.7957 9.61386 31.5706C18.3208 40.0922 29.2272 40.7156 32.2309 40.7156C32.67 40.7156 32.9395 40.7029 33.0112 40.6986C33.5426 40.6695 34.0443 40.4489 34.4196 40.0794L38.4622 35.4601C38.8306 35.0399 39.0171 34.4957 38.9822 33.9431C38.9473 33.3905 38.6937 32.873 38.2753 32.5004L29.4424 24.6363Z" fill="#C4C4C4"/>
<path id="Vector_2" d="M35.9734 19.2367H40.2705C40.2705 8.43257 31.9492 0.28418 20.9121 0.28418V4.49632C29.6395 4.49632 35.9734 10.6945 35.9734 19.2367Z" fill="#C4C4C4"/>
</g>
</svg>
