<svg width="41" height="41" viewBox="0 0 41 41" fill="none" xmlns="http://www.w3.org/2000/svg">
<g id="Group 48096003">
<path id="Vector" fill-rule="evenodd" clip-rule="evenodd" d="M20.2695 0.919434C27.7712 0.919434 34.0197 7.02817 34.0197 14.3592C34.0197 16.7535 33.1786 19.1142 32.0027 21.2511C30.8211 23.3993 29.2589 25.4019 27.7083 27.1081C26.3563 28.5925 24.9024 29.9849 23.3566 31.2757C22.8518 31.6986 22.3307 32.1026 21.7945 32.4868C21.6136 32.6154 21.4275 32.7367 21.2366 32.8505C21.0782 32.9425 20.9116 33.0202 20.7387 33.0826C20.3561 33.2034 19.9403 33.1733 19.58 32.9987C19.4839 32.9542 19.3903 32.9047 19.2996 32.8505C19.1076 32.734 18.9205 32.6099 18.7389 32.4785C18.2035 32.0924 17.6833 31.6865 17.1796 31.2617C15.6355 29.964 14.1826 28.5661 12.8308 27.0774C11.2801 25.3656 9.71799 23.3573 8.53923 21.2176C7.36334 19.0862 6.51933 16.7339 6.51933 14.3592C6.51933 7.02817 12.7679 0.919434 20.2695 0.919434ZM20.2695 18.373C19.1807 18.373 18.1364 17.9501 17.3664 17.1974C16.5965 16.4446 16.1639 15.4237 16.1639 14.3592C16.1639 13.2947 16.5965 12.2738 17.3664 11.5211C18.1364 10.7683 19.1807 10.3455 20.2695 10.3455C21.3584 10.3455 22.4027 10.7683 23.1726 11.5211C23.9426 12.2738 24.3751 13.2947 24.3751 14.3592C24.3751 15.4237 23.9426 16.4446 23.1726 17.1974C22.4027 17.9501 21.3584 18.373 20.2695 18.373ZM29.1388 29.3262C29.6652 28.7472 30.1916 28.1402 30.7124 27.5081H34.5547C35.127 27.5081 35.6419 27.8438 35.8708 28.3556L40.1538 38.1313C40.2471 38.3441 40.2849 38.5762 40.2638 38.8069C40.2428 39.0375 40.1634 39.2594 40.033 39.4526C39.9025 39.6459 39.725 39.8044 39.5164 39.9141C39.3078 40.0237 39.0746 40.081 38.8377 40.0808H1.70133C1.46448 40.081 1.23129 40.0237 1.02268 39.9141C0.814072 39.8044 0.636571 39.6459 0.506111 39.4526C0.375651 39.2594 0.296313 39.0375 0.275217 38.8069C0.254122 38.5762 0.291929 38.3441 0.385246 38.1313L4.6711 28.3556C4.78148 28.1039 4.96504 27.8894 5.199 27.7387C5.43296 27.588 5.70702 27.5079 5.98718 27.5081H9.8639C10.3703 28.1235 10.8853 28.7192 11.4003 29.287C13.2943 31.3736 15.2055 33.1358 16.6932 34.3804C17.4371 35.0042 18.0866 35.5049 18.5844 35.8573C18.8304 36.0335 19.0564 36.1817 19.2481 36.2964C19.4146 36.406 19.5969 36.4909 19.7889 36.5481C20.1796 36.6737 20.6052 36.6436 20.9733 36.4642C21.0878 36.4139 21.1937 36.3524 21.2881 36.2992C21.5144 36.1637 21.7349 36.0191 21.949 35.8657C22.4468 35.5132 23.0934 35.0154 23.8401 34.3972C25.3279 33.1609 27.2448 31.4072 29.1359 29.3262H29.1388Z" fill="#C4C4C4"/>
</g>
</svg>
