<svg width="21" height="22" viewBox="0 0 21 22" fill="none" xmlns="http://www.w3.org/2000/svg">
<path id="Vector" d="M19.7826 15.8062V18.6665C19.7837 18.932 19.7292 19.1948 19.6226 19.4381C19.516 19.6814 19.3597 19.8998 19.1636 20.0793C18.9676 20.2588 18.7361 20.3955 18.4841 20.4806C18.2321 20.5656 17.965 20.5972 17.7 20.5733C14.7604 20.2545 11.9366 19.252 9.45566 17.6463C7.14746 16.1825 5.1905 14.2294 3.72377 11.9258C2.10927 9.43849 1.10453 6.60663 0.790957 3.65961C0.767084 3.39595 0.79848 3.13023 0.883145 2.87935C0.967811 2.62847 1.10389 2.39793 1.28272 2.20242C1.46155 2.0069 1.67921 1.85069 1.92185 1.74373C2.16449 1.63676 2.42678 1.5814 2.69203 1.58115H5.55798C6.0216 1.57659 6.47106 1.74044 6.82259 2.04216C7.17411 2.34387 7.40372 2.76286 7.46861 3.22103C7.58957 4.13638 7.81391 5.03513 8.13733 5.90015C8.26586 6.2414 8.29368 6.61227 8.21748 6.96882C8.14129 7.32537 7.96428 7.65264 7.70744 7.91187L6.49419 9.12272C7.85413 11.5097 9.8344 13.486 12.2261 14.8432L13.4393 13.6324C13.6991 13.3761 14.027 13.1994 14.3842 13.1234C14.7415 13.0473 15.1131 13.0751 15.455 13.2034C16.3218 13.5261 17.2223 13.75 18.1395 13.8708C18.6035 13.9361 19.0273 14.1694 19.3303 14.5262C19.6333 14.8831 19.7942 15.3386 19.7826 15.8062Z" stroke="#C4C4C4" stroke-width="1.5" stroke-linecap="round" stroke-linejoin="round"/>
</svg>
