<svg width="26" height="26" viewBox="0 0 26 26" fill="none" xmlns="http://www.w3.org/2000/svg">
<g id="directions_bus" clip-path="url(#clip0_1825_12174)">
<path id="Vector" d="M4.57422 16.9621C4.57422 17.8789 4.98055 18.702 5.61608 19.275V20.6086C5.61608 21.4733 6.31413 22.1714 7.17888 22.1714C8.04363 22.1714 8.74168 21.4733 8.74168 20.6086V20.0877H17.0766V20.6086C17.0766 21.4629 17.7746 22.1714 18.6394 22.1714C19.4937 22.1714 20.2022 21.4733 20.2022 20.6086V19.275C20.8377 18.702 21.244 17.8789 21.244 16.9621V6.54343C21.244 2.89691 17.5142 2.37598 12.9091 2.37598C8.30409 2.37598 4.57422 2.89691 4.57422 6.54343V16.9621ZM8.22074 18.0039C7.356 18.0039 6.65795 17.3059 6.65795 16.4411C6.65795 15.5764 7.356 14.8783 8.22074 14.8783C9.08549 14.8783 9.78354 15.5764 9.78354 16.4411C9.78354 17.3059 9.08549 18.0039 8.22074 18.0039ZM17.5975 18.0039C16.7328 18.0039 16.0347 17.3059 16.0347 16.4411C16.0347 15.5764 16.7328 14.8783 17.5975 14.8783C18.4623 14.8783 19.1603 15.5764 19.1603 16.4411C19.1603 17.3059 18.4623 18.0039 17.5975 18.0039ZM19.1603 11.7528H6.65795V6.54343H19.1603V11.7528Z" fill="#B9BECA"/>
</g>
<defs>
<clipPath id="clip0_1825_12174">
<rect width="25.0047" height="25.0047" fill="white" transform="translate(0.40625 0.291992)"/>
</clipPath>
</defs>
</svg>
