<svg width="21" height="22" viewBox="0 0 21 22" fill="none" xmlns="http://www.w3.org/2000/svg">
<g id="Component 15/Facebook">
<path id="Vector" fill-rule="evenodd" clip-rule="evenodd" d="M10.4185 18.1485C14.2546 18.1485 17.3643 15.0388 17.3643 11.2027C17.3643 7.36667 14.2546 4.25695 10.4185 4.25695C6.58249 4.25695 3.47277 7.36667 3.47277 11.2027C3.47277 15.0388 6.58249 18.1485 10.4185 18.1485ZM10.4185 19.8849C15.2135 19.8849 19.1007 15.9977 19.1007 11.2027C19.1007 6.40766 15.2135 2.52051 10.4185 2.52051C5.62348 2.52051 1.73633 6.40766 1.73633 11.2027C1.73633 15.9977 5.62348 19.8849 10.4185 19.8849Z" fill="#00E85D"/>
<path id="Vector_2" d="M10.4182 9.46599C10.4182 8.98649 10.8069 8.59777 11.2864 8.59777H12.1546C12.6342 8.59777 13.0229 8.20906 13.0229 7.72955C13.0229 7.25005 12.6342 6.86133 12.1546 6.86133H11.2864C9.84786 6.86133 8.68175 8.02748 8.68175 9.46599V11.2024H7.81353C7.33403 11.2024 6.94531 11.5911 6.94531 12.0706C6.94531 12.5502 7.33402 12.9389 7.81353 12.9389H8.68175V18.1482C8.68175 18.6277 9.07046 19.0164 9.54997 19.0164C10.0295 19.0164 10.4182 18.6277 10.4182 18.1482V12.9389H12.1546C12.6342 12.9389 13.0229 12.5502 13.0229 12.0706C13.0229 11.5911 12.6342 11.2024 12.1546 11.2024H10.4182V9.46599Z" fill="#00E85D"/>
</g>
</svg>
