<svg width="17" height="16" viewBox="0 0 17 16" fill="none" xmlns="http://www.w3.org/2000/svg">
<g id="044-instagram" clip-path="url(#clip0_5028_4960)">
<path id="Vector" d="M8.62511 4.14844C6.40919 4.14844 4.61523 5.94435 4.61523 8.15831C4.61523 10.3742 6.41115 12.1682 8.62511 12.1682C10.841 12.1682 12.635 10.3723 12.635 8.15831C12.635 5.9424 10.8391 4.14844 8.62511 4.14844ZM8.62511 10.761C7.18669 10.761 6.0224 9.59609 6.0224 8.15831C6.0224 6.72054 7.18734 5.55561 8.62511 5.55561C10.0629 5.55561 11.2278 6.72054 11.2278 8.15831C11.2285 9.59609 10.0635 10.761 8.62511 10.761Z" fill="#00E85D"/>
<path id="Vector_2" d="M11.8447 0.396745C10.4069 0.329675 6.84569 0.332931 5.40662 0.396745C4.14206 0.456001 3.02661 0.761398 2.12735 1.66066C0.624462 3.16355 0.816556 5.18867 0.816556 8.15863C0.816556 11.1983 0.647253 13.1765 2.12735 14.6566C3.6361 16.1647 5.69053 15.9674 8.62533 15.9674C11.6363 15.9674 12.6756 15.9694 13.7402 15.5572C15.1878 14.9952 16.2804 13.7014 16.3872 11.3773C16.4549 9.93892 16.451 6.37835 16.3872 4.93927C16.2583 2.19591 14.786 0.532188 11.8447 0.396745ZM14.1205 13.6623C13.1353 14.6475 11.7685 14.5596 8.60644 14.5596C5.35062 14.5596 4.04503 14.6078 3.09238 13.6525C1.99516 12.5605 2.19377 10.8069 2.19377 8.14821C2.19377 4.55053 1.82456 1.95954 5.43527 1.77461C6.26485 1.74531 6.50904 1.73554 8.59733 1.73554L8.62663 1.75508C12.0967 1.75508 14.8192 1.39173 14.9827 5.00179C15.0198 5.82551 15.0282 6.07295 15.0282 8.15798C15.0276 11.376 15.0888 12.6894 14.1205 13.6623Z" fill="#00E85D"/>
<path id="Vector_3" d="M12.7925 4.92776C13.31 4.92776 13.7295 4.50824 13.7295 3.99074C13.7295 3.47323 13.31 3.05371 12.7925 3.05371C12.275 3.05371 11.8555 3.47323 11.8555 3.99074C11.8555 4.50824 12.275 4.92776 12.7925 4.92776Z" fill="#00E85D"/>
</g>
<defs>
<clipPath id="clip0_5028_4960">
<rect width="15.628" height="15.628" fill="white" transform="translate(0.808594 0.34668)"/>
</clipPath>
</defs>
</svg>
