<svg width="25" height="26" viewBox="0 0 25 26" fill="none" xmlns="http://www.w3.org/2000/svg">
<g id="location_on" clip-path="url(#clip0_1825_12166)">
<path id="Vector" d="M12.502 2.37109C8.47002 2.37109 5.20898 5.55341 5.20898 9.48809C5.20898 13.7278 9.81402 19.5739 11.7102 21.8005C12.127 22.2885 12.8875 22.2885 13.3043 21.8005C15.19 19.5739 19.7951 13.7278 19.7951 9.48809C19.7951 5.55341 16.534 2.37109 12.502 2.37109ZM12.502 12.0299C11.0643 12.0299 9.89737 10.8912 9.89737 9.48809C9.89737 8.08503 11.0643 6.94631 12.502 6.94631C13.9398 6.94631 15.1067 8.08503 15.1067 9.48809C15.1067 10.8912 13.9398 12.0299 12.502 12.0299Z" fill="#B9BECA"/>
</g>
<defs>
<clipPath id="clip0_1825_12166">
<rect width="25.0047" height="25.0047" fill="white" transform="translate(0 0.287109)"/>
</clipPath>
</defs>
</svg>
