<svg width="26" height="26" viewBox="0 0 26 26" fill="none" xmlns="http://www.w3.org/2000/svg">
<g id="local_taxi" clip-path="url(#clip0_1825_12177)">
<path id="Vector" d="M20.1177 7.06082C19.9094 6.44612 19.3259 6.00853 18.6383 6.00853H16.0336V4.96667C16.0336 4.39364 15.5648 3.9248 14.9918 3.9248H10.8243C10.2513 3.9248 9.78244 4.39364 9.78244 4.96667V6.00853H7.17777C6.49014 6.00853 5.91712 6.44612 5.69833 7.06082L3.64585 12.9682C3.57292 13.187 3.53125 13.4162 3.53125 13.6558V21.1156C3.53125 21.9803 4.2293 22.6784 5.09405 22.6784C5.95879 22.6784 6.65684 21.9803 6.65684 21.1156V20.5946H19.1592V21.1156C19.1592 21.9699 19.8573 22.6784 20.722 22.6784C21.5763 22.6784 22.2848 21.9803 22.2848 21.1156V13.6558C22.2848 13.4266 22.2431 13.187 22.1702 12.9682L20.1177 7.06082ZM7.17777 17.469C6.31303 17.469 5.61498 16.771 5.61498 15.9062C5.61498 15.0415 6.31303 14.3434 7.17777 14.3434C8.04252 14.3434 8.74057 15.0415 8.74057 15.9062C8.74057 16.771 8.04252 17.469 7.17777 17.469ZM18.6383 17.469C17.7735 17.469 17.0755 16.771 17.0755 15.9062C17.0755 15.0415 17.7735 14.3434 18.6383 14.3434C19.503 14.3434 20.2011 15.0415 20.2011 15.9062C20.2011 16.771 19.503 17.469 18.6383 17.469ZM5.61498 12.2597L7.17777 7.57133H18.6383L20.2011 12.2597H5.61498Z" fill="#B9BECA"/>
</g>
<defs>
<clipPath id="clip0_1825_12177">
<rect width="25.0047" height="25.0047" fill="white" transform="translate(0.40625 0.798828)"/>
</clipPath>
</defs>
</svg>
