<svg width="26" height="26" viewBox="0 0 26 26" fill="none" xmlns="http://www.w3.org/2000/svg">
<g id="directions_subway" clip-path="url(#clip0_1825_12171)">
<path id="Vector" d="M12.9091 2.86816C8.30409 2.86816 4.57422 3.3891 4.57422 7.03562V16.9333C4.57422 18.9441 6.20995 20.5799 8.22074 20.5799L7.0226 21.778C6.69962 22.101 6.92883 22.6636 7.39767 22.6636H18.431C18.8999 22.6636 19.1291 22.101 18.7957 21.778L17.5975 20.5799C19.6083 20.5799 21.244 18.9441 21.244 16.9333V7.03562C21.244 3.3891 17.5142 2.86816 12.9091 2.86816ZM8.22074 18.4961C7.356 18.4961 6.65795 17.7981 6.65795 16.9333C6.65795 16.0686 7.356 15.3705 8.22074 15.3705C9.08549 15.3705 9.78354 16.0686 9.78354 16.9333C9.78354 17.7981 9.08549 18.4961 8.22074 18.4961ZM11.8673 12.2449H6.65795V7.03562H11.8673V12.2449ZM17.5975 18.4961C16.7328 18.4961 16.0347 17.7981 16.0347 16.9333C16.0347 16.0686 16.7328 15.3705 17.5975 15.3705C18.4623 15.3705 19.1603 16.0686 19.1603 16.9333C19.1603 17.7981 18.4623 18.4961 17.5975 18.4961ZM19.1603 12.2449H13.951V7.03562H19.1603V12.2449Z" fill="#B9BECA"/>
</g>
<defs>
<clipPath id="clip0_1825_12171">
<rect width="25.0047" height="25.0047" fill="white" transform="translate(0.40625 0.78418)"/>
</clipPath>
</defs>
</svg>
