<svg width="22" height="22" viewBox="0 0 22 22" fill="none" xmlns="http://www.w3.org/2000/svg">
<g id="Component 15/Telegram">
<path id="Vector" d="M17.8061 3.38632C17.5971 3.40153 17.3919 3.45057 17.1986 3.53153H17.196C17.0104 3.60511 16.1281 3.97628 14.7867 4.53888L9.97976 6.56336C6.53054 8.01546 3.13992 9.44541 3.13992 9.44541L3.1803 9.42979C3.1803 9.42979 2.94653 9.50662 2.70234 9.67397C2.55148 9.76997 2.42167 9.89557 2.32076 10.0432C2.20094 10.219 2.10457 10.4879 2.14039 10.766C2.19899 11.2361 2.50374 11.5181 2.72253 11.6737C2.94392 11.8313 3.1549 11.9049 3.1549 11.9049H3.16011L6.33975 12.976C6.48236 13.4338 7.30868 16.1505 7.50729 16.7762C7.6245 17.15 7.73845 17.3838 7.88106 17.5622C7.95008 17.6534 8.03083 17.7295 8.12785 17.7907C8.17829 17.8201 8.23207 17.8433 8.28804 17.8598L8.25548 17.852C8.26525 17.8546 8.27306 17.8624 8.28022 17.865C8.30627 17.8721 8.32385 17.8747 8.35706 17.88C8.86041 18.0323 9.26478 17.7198 9.26478 17.7198L9.28757 17.7015L11.1649 15.9922L14.3113 18.4061L14.3829 18.4367C15.0387 18.7245 15.7029 18.5643 16.0538 18.2817C16.4074 17.9972 16.5448 17.6332 16.5448 17.6332L16.5676 17.5746L18.9991 5.11842C19.0681 4.81107 19.0857 4.52326 19.0095 4.24391C18.9309 3.96119 18.7495 3.71803 18.5009 3.56214C18.2922 3.43523 18.0501 3.37398 17.8061 3.38632ZM17.7403 4.72121C17.7377 4.76223 17.7456 4.75768 17.7273 4.83647V4.84363L15.3187 17.1702C15.3082 17.1878 15.2907 17.2262 15.2425 17.2646C15.1917 17.305 15.1513 17.3304 14.9397 17.2464L11.0913 14.2959L8.76664 16.4148L9.25502 13.2958L15.5427 7.43527C15.8018 7.19434 15.7152 7.14355 15.7152 7.14355C15.7335 6.84792 15.3239 7.05694 15.3239 7.05694L7.39529 11.9687L7.39268 11.9557L3.59248 10.6761V10.6735L3.58272 10.6716C3.58938 10.6693 3.5959 10.6667 3.60225 10.6637L3.62309 10.6533L3.64328 10.6462C3.64328 10.6462 7.0365 9.2162 10.4857 7.76411C12.2126 7.03675 13.9525 6.30419 15.2907 5.73898C16.0843 5.40494 16.8787 5.07284 17.6739 4.7427C17.7273 4.72186 17.7019 4.72186 17.7403 4.72186V4.72121Z" fill="#00E85D"/>
</g>
</svg>
