<svg width="22" height="22" viewBox="0 0 22 22" fill="none" xmlns="http://www.w3.org/2000/svg">
<g id="Component 15/Youtube">
<path id="Vector" d="M19.9514 11.1462C19.9514 11.1014 19.9514 11.0506 19.9493 10.9915C19.9473 10.8267 19.9432 10.6415 19.9392 10.4442C19.9229 9.87642 19.8944 9.31072 19.8496 8.77758C19.7886 8.04298 19.699 7.43048 19.577 6.97059C19.4481 6.49066 19.1956 6.05295 18.8445 5.70122C18.4935 5.34948 18.0563 5.09604 17.5767 4.96622C17.0008 4.81157 15.8735 4.71593 14.2862 4.65691C13.5313 4.62842 12.7234 4.61011 11.9156 4.59994C11.6327 4.59587 11.3702 4.59383 11.1342 4.5918H10.5359C10.2999 4.59383 10.0374 4.59587 9.75453 4.59994C8.94668 4.61011 8.13883 4.62842 7.38389 4.65691C5.79667 4.71796 4.66731 4.8136 4.09347 4.96622C3.61364 5.09572 3.17628 5.34905 2.82521 5.70084C2.47414 6.05262 2.22169 6.4905 2.09317 6.97059C1.96904 7.43048 1.88154 8.04298 1.82049 8.77758C1.77573 9.31072 1.74724 9.87642 1.73096 10.4442C1.72485 10.6415 1.72282 10.8267 1.72078 10.9915C1.72078 11.0506 1.71875 11.1014 1.71875 11.1462V11.2602C1.71875 11.3049 1.71875 11.3558 1.72078 11.4148C1.72282 11.5796 1.72689 11.7648 1.73096 11.9622C1.74724 12.5299 1.77573 13.0956 1.82049 13.6288C1.88154 14.3634 1.97108 14.9759 2.09317 15.4358C2.35364 16.4105 3.11875 17.1797 4.09347 17.4401C4.66731 17.5948 5.79667 17.6904 7.38389 17.7494C8.13883 17.7779 8.94668 17.7962 9.75453 17.8064C10.0374 17.8105 10.2999 17.8125 10.5359 17.8146H11.1342C11.3702 17.8125 11.6327 17.8105 11.9156 17.8064C12.7234 17.7962 13.5313 17.7779 14.2862 17.7494C15.8735 17.6884 17.0028 17.5927 17.5767 17.4401C18.5514 17.1797 19.3165 16.4125 19.577 15.4358C19.7011 14.9759 19.7886 14.3634 19.8496 13.6288C19.8944 13.0956 19.9229 12.5299 19.9392 11.9622C19.9453 11.7648 19.9473 11.5796 19.9493 11.4148C19.9493 11.3558 19.9514 11.3049 19.9514 11.2602V11.1462ZM18.4863 11.252C18.4863 11.2947 18.4863 11.3415 18.4842 11.3965C18.4822 11.5552 18.4781 11.7302 18.474 11.9195C18.4598 12.4607 18.4313 13.002 18.3886 13.5046C18.3336 14.1599 18.2563 14.6971 18.1607 15.0573C18.0345 15.5273 17.6642 15.8997 17.1961 16.0238C16.7688 16.1378 15.6923 16.2294 14.2293 16.2843C13.4886 16.3128 12.6909 16.3311 11.8952 16.3413C11.6165 16.3454 11.358 16.3474 11.1261 16.3474H10.5441L9.77488 16.3413C8.97924 16.3311 8.1836 16.3128 7.44086 16.2843C5.97778 16.2273 4.89928 16.1378 4.47399 16.0238C4.00597 15.8977 3.63562 15.5273 3.50945 15.0573C3.41381 14.6971 3.33649 14.1599 3.28155 13.5046C3.23881 13.002 3.21236 12.4607 3.19608 11.9195C3.18998 11.7302 3.18794 11.5532 3.18591 11.3965C3.18591 11.3415 3.18387 11.2927 3.18387 11.252V11.1543C3.18387 11.1116 3.18387 11.0648 3.18591 11.0099C3.18794 10.8511 3.19201 10.6761 3.19608 10.4869C3.21033 9.94561 3.23881 9.40433 3.28155 8.90171C3.33649 8.24647 3.41381 7.70926 3.50945 7.34908C3.63562 6.87902 4.00597 6.50663 4.47399 6.38251C4.90132 6.26855 5.97778 6.17698 7.44086 6.12204C8.18156 6.09355 8.97924 6.07524 9.77488 6.06506C10.0537 6.06099 10.3121 6.05896 10.5441 6.05896H11.1261L11.8952 6.06506C12.6909 6.07524 13.4865 6.09355 14.2293 6.12204C15.6923 6.17902 16.7708 6.26855 17.1961 6.38251C17.6642 6.50867 18.0345 6.87902 18.1607 7.34908C18.2563 7.70926 18.3336 8.24647 18.3886 8.90171C18.4313 9.40433 18.4578 9.94561 18.474 10.4869C18.4801 10.6761 18.4822 10.8532 18.4842 11.0099C18.4842 11.0648 18.4863 11.1136 18.4863 11.1543V11.252ZM9.02401 13.9299L13.745 11.1828L9.02401 8.47641V13.9299Z" fill="#00E85D"/>
</g>
</svg>
